<svg xmlns="http://www.w3.org/2000/svg" xmlns:xlink="http://www.w3.org/1999/xlink" width="1024" zoomAndPan="magnify" viewBox="0 0 768 767.999994" height="1024" preserveAspectRatio="xMidYMid meet" version="1.0"><defs><clipPath id="id1"><path d="M 34.054688 78 L 727.804688 78 L 727.804688 727 L 34.054688 727 Z M 34.054688 78 " clip-rule="nonzero"/></clipPath></defs><rect x="-76.8" width="921.6" fill="#ffffff" y="-76.799999" height="921.599993" fill-opacity="1"/><rect x="-76.8" width="921.6" fill="#ff914d" y="-76.799999" height="921.599993" fill-opacity="1"/><rect x="-76.8" width="921.6" fill="#ffffff" y="-76.799999" height="921.599993" fill-opacity="1"/><rect x="-76.8" width="921.6" fill="#ff914d" y="-76.799999" height="921.599993" fill-opacity="1"/><g clip-path="url(#id1)"><path fill="#ffffff" d="M 526.617188 502.3125 C 564.914062 502.3125 595.992188 471.214844 595.992188 432.898438 C 595.992188 394.582031 564.914062 363.484375 526.617188 363.484375 C 488.324219 363.484375 457.242188 394.582031 457.242188 432.898438 C 457.242188 471.214844 488.324219 502.3125 526.617188 502.3125 Z M 526.617188 391.25 C 549.511719 391.25 568.242188 409.992188 568.242188 432.898438 C 568.242188 455.804688 549.511719 474.546875 526.617188 474.546875 C 503.726562 474.546875 484.992188 455.804688 484.992188 432.898438 C 484.992188 409.992188 503.726562 391.25 526.617188 391.25 Z M 657.183594 78.878906 L 104.679688 78.878906 C 65.691406 78.878906 34.054688 110.535156 34.054688 149.546875 L 34.054688 535.773438 C 34.054688 574.785156 65.691406 606.4375 104.679688 606.4375 L 456.132812 606.4375 L 443.230469 710.835938 C 442.535156 716.113281 445.035156 721.386719 449.472656 724.304688 C 451.695312 725.691406 454.328125 726.523438 456.964844 726.523438 C 459.464844 726.523438 462.101562 725.832031 464.320312 724.441406 L 526.757812 685.429688 L 588.777344 722.636719 C 593.355469 725.414062 599.046875 725.277344 603.484375 722.359375 C 607.925781 719.445312 610.285156 714.308594 609.730469 709.03125 L 597.105469 606.4375 L 657.183594 606.4375 C 696.171875 606.4375 727.804688 574.785156 727.804688 535.773438 L 727.804688 149.546875 C 727.804688 110.535156 696.171875 78.878906 657.183594 78.878906 Z M 413.121094 442.753906 L 403.132812 431.789062 C 401.1875 429.707031 401.1875 426.652344 403.132812 424.570312 L 413.121094 413.601562 C 420.476562 405.550781 423.386719 394.582031 421.03125 384.03125 L 417.839844 369.589844 C 417.285156 366.953125 418.808594 364.175781 421.445312 363.34375 L 435.597656 358.902344 C 445.867188 355.707031 454.050781 347.519531 457.242188 337.246094 L 461.683594 323.082031 C 462.515625 320.445312 465.152344 318.78125 467.925781 319.472656 L 482.355469 322.667969 C 492.902344 325.027344 504.003906 322.113281 511.910156 314.753906 L 522.871094 304.757812 C 524.953125 302.8125 528.144531 302.8125 530.226562 304.757812 L 541.1875 314.753906 C 549.234375 322.113281 560.195312 325.027344 570.742188 322.667969 L 585.171875 319.472656 C 587.945312 318.78125 590.582031 320.445312 591.554688 323.082031 L 595.992188 337.246094 C 599.324219 347.519531 607.371094 355.707031 617.636719 358.902344 L 631.792969 363.34375 C 634.425781 364.175781 636.09375 366.953125 635.398438 369.589844 L 632.207031 384.03125 C 629.847656 394.582031 632.761719 405.6875 640.117188 413.601562 L 650.105469 424.570312 C 652.046875 426.652344 652.046875 429.84375 650.105469 431.789062 L 640.117188 442.753906 C 632.761719 450.808594 629.847656 461.773438 632.207031 472.328125 L 635.398438 486.765625 C 635.953125 489.542969 634.425781 492.179688 631.792969 493.011719 L 617.636719 497.453125 C 607.371094 500.648438 599.183594 508.839844 595.992188 519.113281 L 591.554688 533.273438 C 590.722656 535.910156 587.945312 537.578125 585.308594 536.882812 L 580.316406 535.773438 C 579.898438 535.632812 579.480469 535.632812 579.066406 535.496094 L 570.878906 533.6875 C 560.335938 531.328125 549.234375 534.246094 541.324219 541.601562 L 530.363281 551.597656 C 528.285156 553.542969 525.09375 553.542969 523.011719 551.597656 L 512.050781 541.601562 C 505.804688 535.910156 497.898438 532.855469 489.574219 532.855469 C 487.214844 532.855469 484.714844 533.132812 482.355469 533.6875 L 474.585938 535.355469 C 473.894531 535.496094 473.339844 535.632812 472.785156 535.773438 L 467.925781 536.882812 C 465.292969 537.4375 462.378906 535.910156 461.542969 533.273438 L 457.105469 519.113281 C 453.914062 508.839844 445.726562 500.648438 435.460938 497.453125 L 421.308594 493.011719 C 418.671875 492.179688 417.007812 489.402344 417.699219 486.625 L 420.890625 472.1875 C 423.386719 461.773438 420.476562 450.667969 413.121094 442.753906 Z M 533.695312 656.972656 C 529.253906 654.332031 523.566406 654.332031 519.265625 657.109375 L 474.308594 685.152344 L 489.710938 560.761719 C 490.960938 560.761719 492.207031 561.179688 493.179688 562.011719 L 504.140625 572.007812 C 510.523438 577.835938 518.570312 580.753906 526.480469 580.753906 C 534.386719 580.753906 542.4375 577.835938 548.820312 572.007812 L 559.78125 562.011719 C 560.75 561.179688 562 560.761719 563.25 560.761719 L 578.511719 683.902344 Z M 700.054688 535.773438 C 700.054688 559.375 680.769531 578.671875 657.183594 578.671875 L 593.636719 578.671875 L 591.832031 564.371094 C 603.761719 562.425781 614.167969 553.957031 617.917969 541.601562 L 622.355469 527.441406 C 622.910156 525.777344 624.160156 524.386719 625.824219 523.972656 L 639.976562 519.527344 C 656.488281 514.253906 666.0625 497.59375 662.316406 480.796875 L 659.125 466.355469 C 658.707031 464.691406 659.261719 462.886719 660.375 461.636719 L 670.363281 450.667969 C 682.019531 437.894531 682.15625 418.597656 670.363281 405.828125 L 660.375 394.859375 C 659.261719 393.609375 658.707031 391.804688 659.125 390 L 662.316406 375.5625 C 666.0625 358.625 656.488281 341.964844 639.976562 336.6875 L 625.824219 332.246094 C 624.160156 331.691406 622.910156 330.441406 622.355469 328.777344 L 617.917969 314.613281 C 612.78125 298.09375 595.992188 288.375 579.066406 292.261719 L 564.636719 295.457031 C 562.972656 295.871094 561.167969 295.316406 559.78125 294.207031 L 548.820312 284.210938 C 536.054688 272.550781 516.765625 272.550781 504.003906 284.210938 L 493.320312 294.066406 C 492.070312 295.316406 490.265625 295.734375 488.460938 295.316406 L 474.03125 292.125 C 457.105469 288.375 440.453125 297.957031 435.320312 314.476562 L 430.882812 328.777344 C 430.324219 330.441406 429.078125 331.828125 427.414062 332.246094 L 413.261719 336.6875 C 396.75 341.964844 387.175781 358.625 390.921875 375.421875 L 394.113281 389.859375 C 394.527344 391.527344 393.972656 393.332031 392.863281 394.71875 L 382.875 405.6875 C 371.21875 418.460938 371.21875 437.757812 382.875 450.53125 L 392.863281 461.496094 C 394.113281 462.746094 394.527344 464.550781 394.113281 466.21875 L 390.921875 480.65625 C 387.175781 497.59375 396.75 514.253906 413.261719 519.527344 L 427.414062 523.972656 C 429.078125 524.527344 430.324219 525.777344 430.882812 527.441406 L 435.320312 541.601562 C 439.207031 553.957031 449.472656 562.425781 461.40625 564.371094 L 459.601562 578.671875 L 104.679688 578.671875 C 81.09375 578.671875 61.804688 559.375 61.804688 535.773438 L 61.804688 149.546875 C 61.804688 125.945312 81.09375 106.648438 104.679688 106.648438 L 657.183594 106.648438 C 680.769531 106.648438 700.054688 125.945312 700.054688 149.546875 Z M 630.679688 162.179688 C 630.679688 169.816406 624.4375 176.0625 616.804688 176.0625 L 145.054688 176.0625 C 137.425781 176.0625 131.179688 169.816406 131.179688 162.179688 C 131.179688 154.542969 137.425781 148.296875 145.054688 148.296875 L 616.804688 148.296875 C 624.4375 148.296875 630.679688 154.542969 630.679688 162.179688 Z M 630.679688 231.59375 C 630.679688 239.230469 624.4375 245.476562 616.804688 245.476562 L 145.054688 245.476562 C 137.425781 245.476562 131.179688 239.230469 131.179688 231.59375 C 131.179688 223.957031 137.425781 217.710938 145.054688 217.710938 L 616.804688 217.710938 C 624.4375 217.710938 630.679688 223.957031 630.679688 231.59375 Z M 367.054688 301.007812 C 367.054688 308.644531 360.8125 314.894531 353.179688 314.894531 L 145.054688 314.894531 C 137.425781 314.894531 131.179688 308.644531 131.179688 301.007812 C 131.179688 293.375 137.425781 287.125 145.054688 287.125 L 353.179688 287.125 C 360.8125 287.125 367.054688 293.375 367.054688 301.007812 Z M 325.429688 370.425781 C 325.429688 378.058594 319.1875 384.308594 311.554688 384.308594 L 145.054688 384.308594 C 137.425781 384.308594 131.179688 378.058594 131.179688 370.425781 C 131.179688 362.789062 137.425781 356.542969 145.054688 356.542969 L 311.554688 356.542969 C 319.1875 356.542969 325.429688 362.789062 325.429688 370.425781 Z M 325.429688 439.839844 C 325.429688 447.476562 319.1875 453.722656 311.554688 453.722656 L 145.054688 453.722656 C 137.425781 453.722656 131.179688 447.476562 131.179688 439.839844 C 131.179688 432.203125 137.425781 425.957031 145.054688 425.957031 L 311.554688 425.957031 C 319.1875 425.957031 325.429688 432.203125 325.429688 439.839844 Z M 325.429688 439.839844 " fill-opacity="1" fill-rule="nonzero"/></g></svg>