<svg xmlns="http://www.w3.org/2000/svg" xmlns:xlink="http://www.w3.org/1999/xlink" width="1024" zoomAndPan="magnify" viewBox="0 0 768 767.999994" height="1024" preserveAspectRatio="xMidYMid meet" version="1.0"><defs><clipPath id="id1"><path d="M 21.152344 60.160156 L 747.152344 60.160156 L 747.152344 702 L 21.152344 702 Z M 21.152344 60.160156 " clip-rule="nonzero"/></clipPath></defs><rect x="-76.8" width="921.6" fill="#ffffff" y="-76.799999" height="921.599993" fill-opacity="1"/><rect x="-76.8" width="921.6" fill="#ffffff" y="-76.799999" height="921.599993" fill-opacity="1"/><rect x="-76.8" width="921.6" fill="#ffffff" y="-76.799999" height="921.599993" fill-opacity="1"/><g clip-path="url(#id1)"><path fill="#0c2359" d="M 68.679688 562.109375 C 61.472656 562.109375 55.644531 556.277344 55.644531 549.070312 C 55.644531 541.867188 61.472656 536.035156 68.679688 536.035156 C 75.859375 536.035156 81.71875 541.867188 81.71875 549.070312 C 81.71875 556.277344 75.859375 562.109375 68.679688 562.109375 Z M 68.679688 601.683594 C 61.472656 601.683594 55.644531 595.851562 55.644531 588.644531 C 55.644531 581.464844 61.472656 575.605469 68.679688 575.605469 C 75.859375 575.605469 81.71875 581.464844 81.71875 588.644531 C 81.71875 595.851562 75.859375 601.683594 68.679688 601.683594 Z M 700.328125 424.851562 C 687.773438 424.851562 675.960938 429.742188 667.074219 438.628906 L 601.324219 504.378906 C 593.8125 511.867188 582.6875 514.109375 572.910156 510.035156 C 563.128906 506.011719 556.789062 496.539062 556.789062 485.945312 L 556.789062 327.726562 C 556.789062 182.703125 438.84375 62.683594 293.878906 60.191406 C 292.351562 60.164062 290.847656 60.164062 289.347656 60.164062 C 220.164062 60.164062 154.519531 87.308594 104.050781 136.917969 C 51.671875 188.40625 21.648438 259.761719 21.648438 332.71875 L 21.648438 607.617188 C 21.648438 633.566406 42.734375 654.652344 68.679688 654.652344 C 94.601562 654.652344 115.710938 633.566406 115.710938 607.617188 L 115.710938 327.726562 C 115.710938 233.660156 192.203125 155.8125 286.242188 154.234375 C 332.101562 153.597656 375.667969 171.140625 409.078125 203.992188 C 443.171875 237.53125 462.726562 283.976562 462.726562 331.394531 L 462.726562 485.945312 C 462.726562 496.539062 456.414062 506.011719 446.636719 510.058594 C 436.855469 514.109375 425.703125 511.894531 418.21875 504.40625 L 352.445312 438.628906 C 343.585938 429.742188 331.769531 424.851562 319.214844 424.851562 C 306.660156 424.851562 294.871094 429.742188 285.984375 438.628906 C 277.097656 447.515625 272.210938 459.332031 272.210938 471.886719 C 272.210938 484.441406 277.125 496.257812 286.011719 505.117188 L 463.695312 682.585938 C 489.109375 707.949219 530.433594 707.949219 555.824219 682.585938 L 733.53125 505.117188 C 742.417969 496.257812 747.308594 484.441406 747.308594 471.886719 C 747.332031 459.332031 742.445312 447.515625 733.558594 438.628906 C 724.671875 429.742188 712.882812 424.851562 700.328125 424.851562 " fill-opacity="1" fill-rule="nonzero"/></g></svg>