<svg xmlns="http://www.w3.org/2000/svg" xmlns:xlink="http://www.w3.org/1999/xlink" width="1024" zoomAndPan="magnify" viewBox="0 0 768 767.999994" height="1024" preserveAspectRatio="xMidYMid meet" version="1.0"><defs><clipPath id="id1"><path d="M 64.0625 22.484375 L 735 22.484375 L 735 745.484375 L 64.0625 745.484375 Z M 64.0625 22.484375 " clip-rule="nonzero"/></clipPath></defs><rect x="-76.8" width="921.6" fill="#ffffff" y="-76.799999" height="921.599993" fill-opacity="1"/><rect x="-76.8" width="921.6" fill="#ffffff" y="-76.799999" height="921.599993" fill-opacity="1"/><rect x="-76.8" width="921.6" fill="#ffffff" y="-76.799999" height="921.599993" fill-opacity="1"/><g clip-path="url(#id1)"><path fill="#0c2359" d="M 734.195312 351.027344 C 734.191406 348.535156 734.128906 346.046875 734.007812 343.558594 C 733.890625 341.070312 733.710938 338.585938 733.476562 336.105469 C 733.242188 333.625 732.949219 331.148438 732.597656 328.683594 C 732.25 326.214844 731.84375 323.757812 731.378906 321.3125 C 730.914062 318.863281 730.390625 316.425781 729.8125 314.003906 C 729.234375 311.578125 728.601562 309.171875 727.914062 306.777344 C 727.222656 304.382812 726.476562 302.003906 725.675781 299.644531 C 724.875 297.285156 724.019531 294.945312 723.113281 292.625 C 722.203125 290.304688 721.238281 288.007812 720.222656 285.734375 C 719.207031 283.457031 718.140625 281.207031 717.019531 278.984375 C 715.898438 276.757812 714.726562 274.558594 713.503906 272.386719 C 712.277344 270.21875 711.007812 268.074219 709.683594 265.964844 C 708.359375 263.851562 706.988281 261.773438 705.570312 259.722656 C 704.148438 257.675781 702.683594 255.664062 701.171875 253.683594 C 699.65625 251.703125 698.097656 249.757812 696.496094 247.851562 C 694.890625 245.945312 693.246094 244.074219 691.554688 242.242188 C 689.863281 240.414062 688.132812 238.621094 686.355469 236.871094 C 684.582031 235.121094 682.769531 233.414062 680.917969 231.746094 C 679.0625 230.082031 677.171875 228.460938 675.242188 226.882812 C 673.3125 225.304688 671.351562 223.769531 669.351562 222.285156 C 667.347656 220.796875 665.316406 219.355469 663.25 217.964844 C 661.183594 216.574219 659.082031 215.230469 656.953125 213.933594 C 654.824219 212.640625 652.664062 211.394531 650.476562 210.199219 C 648.289062 209.003906 646.078125 207.863281 643.835938 206.769531 C 641.59375 205.679688 639.332031 204.640625 637.042969 203.65625 C 634.753906 202.667969 632.441406 201.734375 630.109375 200.855469 C 627.777344 199.976562 625.425781 199.152344 623.054688 198.382812 C 620.683594 197.613281 618.296875 196.902344 615.894531 196.242188 C 613.488281 195.582031 611.070312 194.980469 608.640625 194.433594 C 606.207031 193.886719 603.765625 193.398438 601.308594 192.964844 C 598.855469 192.535156 596.390625 192.160156 593.917969 191.839844 C 591.445312 191.523438 588.96875 191.261719 586.484375 191.058594 L 586.484375 87.136719 C 586.484375 86.078125 586.457031 85.023438 586.402344 83.964844 C 586.351562 82.910156 586.269531 81.855469 586.167969 80.800781 C 586.0625 79.75 585.929688 78.699219 585.773438 77.652344 C 585.617188 76.609375 585.4375 75.566406 585.230469 74.527344 C 585.023438 73.492188 584.789062 72.460938 584.53125 71.433594 C 584.273438 70.410156 583.992188 69.390625 583.683594 68.378906 C 583.375 67.367188 583.042969 66.363281 582.6875 65.367188 C 582.328125 64.371094 581.949219 63.382812 581.542969 62.40625 C 581.136719 61.429688 580.707031 60.464844 580.253906 59.507812 C 579.800781 58.550781 579.324219 57.605469 578.824219 56.675781 C 578.328125 55.742188 577.804688 54.820312 577.261719 53.914062 C 576.714844 53.007812 576.148438 52.113281 575.5625 51.234375 C 574.972656 50.355469 574.363281 49.492188 573.734375 48.640625 C 573.105469 47.792969 572.453125 46.960938 571.78125 46.140625 C 571.109375 45.324219 570.417969 44.523438 569.707031 43.738281 C 568.996094 42.957031 568.269531 42.191406 567.519531 41.441406 C 566.769531 40.695312 566.003906 39.964844 565.222656 39.253906 C 564.4375 38.542969 563.636719 37.851562 562.816406 37.183594 C 562 36.511719 561.167969 35.859375 560.316406 35.230469 C 559.46875 34.601562 558.601562 33.992188 557.722656 33.402344 C 556.84375 32.816406 555.949219 32.25 555.042969 31.703125 C 554.132812 31.160156 553.214844 30.640625 552.28125 30.140625 C 551.347656 29.640625 550.402344 29.164062 549.445312 28.710938 C 548.492188 28.261719 547.523438 27.832031 546.546875 27.425781 C 545.570312 27.019531 544.582031 26.640625 543.585938 26.28125 C 542.589844 25.925781 541.585938 25.59375 540.574219 25.285156 C 539.5625 24.976562 538.542969 24.695312 537.515625 24.4375 C 536.488281 24.179688 535.457031 23.945312 534.417969 23.738281 C 533.382812 23.53125 532.339844 23.351562 531.292969 23.195312 C 530.246094 23.039062 529.195312 22.90625 528.144531 22.804688 C 527.089844 22.699219 526.035156 22.621094 524.980469 22.566406 C 523.921875 22.511719 522.863281 22.484375 521.804688 22.484375 L 245.0625 22.484375 C 240.828125 22.480469 236.632812 22.890625 232.480469 23.714844 C 228.324219 24.539062 224.292969 25.765625 220.382812 27.390625 C 216.46875 29.015625 212.757812 31.007812 209.242188 33.371094 C 205.726562 35.730469 202.476562 38.414062 199.492188 41.421875 L 83.789062 156.566406 C 80.765625 159.5625 78.0625 162.824219 75.683594 166.355469 C 73.304688 169.882812 71.289062 173.609375 69.648438 177.539062 C 68.003906 181.464844 66.757812 185.511719 65.914062 189.683594 C 65.070312 193.855469 64.644531 198.070312 64.628906 202.328125 L 64.628906 680.832031 C 64.632812 681.886719 64.660156 682.945312 64.710938 684 C 64.765625 685.058594 64.84375 686.113281 64.949219 687.164062 C 65.054688 688.21875 65.183594 689.265625 65.339844 690.3125 C 65.496094 691.359375 65.679688 692.402344 65.886719 693.4375 C 66.09375 694.476562 66.324219 695.507812 66.582031 696.53125 C 66.839844 697.558594 67.125 698.578125 67.433594 699.589844 C 67.738281 700.601562 68.070312 701.605469 68.429688 702.601562 C 68.785156 703.597656 69.167969 704.582031 69.574219 705.5625 C 69.980469 706.539062 70.40625 707.503906 70.859375 708.460938 C 71.3125 709.417969 71.789062 710.359375 72.289062 711.292969 C 72.789062 712.226562 73.308594 713.144531 73.855469 714.054688 C 74.398438 714.960938 74.964844 715.851562 75.554688 716.730469 C 76.140625 717.613281 76.75 718.476562 77.382812 719.324219 C 78.011719 720.175781 78.664062 721.007812 79.332031 721.824219 C 80.003906 722.644531 80.695312 723.445312 81.40625 724.226562 C 82.117188 725.011719 82.847656 725.777344 83.59375 726.527344 C 84.34375 727.273438 85.109375 728.003906 85.894531 728.714844 C 86.679688 729.421875 87.480469 730.113281 88.296875 730.785156 C 89.113281 731.457031 89.949219 732.105469 90.796875 732.738281 C 91.648438 733.367188 92.511719 733.976562 93.390625 734.566406 C 94.273438 735.152344 95.164062 735.71875 96.074219 736.261719 C 96.980469 736.808594 97.902344 737.328125 98.832031 737.828125 C 99.765625 738.328125 100.710938 738.800781 101.667969 739.253906 C 102.625 739.707031 103.589844 740.136719 104.570312 740.542969 C 105.546875 740.949219 106.53125 741.328125 107.527344 741.683594 C 108.523438 742.042969 109.53125 742.375 110.542969 742.683594 C 111.554688 742.992188 112.574219 743.273438 113.601562 743.53125 C 114.625 743.789062 115.65625 744.019531 116.695312 744.226562 C 117.734375 744.4375 118.777344 744.617188 119.820312 744.773438 C 120.867188 744.929688 121.917969 745.058594 122.972656 745.164062 C 124.023438 745.269531 125.078125 745.347656 126.136719 745.402344 C 127.191406 745.453125 128.25 745.480469 129.308594 745.484375 L 521.804688 745.484375 C 522.863281 745.480469 523.921875 745.453125 524.980469 745.402344 C 526.035156 745.347656 527.089844 745.269531 528.144531 745.164062 C 529.195312 745.058594 530.246094 744.929688 531.292969 744.773438 C 532.339844 744.617188 533.382812 744.4375 534.417969 744.226562 C 535.457031 744.019531 536.488281 743.789062 537.515625 743.53125 C 538.542969 743.273438 539.5625 742.992188 540.574219 742.683594 C 541.585938 742.375 542.589844 742.042969 543.585938 741.683594 C 544.582031 741.328125 545.570312 740.949219 546.546875 740.542969 C 547.523438 740.136719 548.492188 739.707031 549.445312 739.253906 C 550.402344 738.800781 551.347656 738.328125 552.28125 737.828125 C 553.214844 737.328125 554.132812 736.808594 555.042969 736.261719 C 555.949219 735.71875 556.84375 735.152344 557.722656 734.566406 C 558.601562 733.976562 559.46875 733.367188 560.316406 732.738281 C 561.167969 732.105469 562 731.457031 562.816406 730.785156 C 563.636719 730.113281 564.4375 729.421875 565.222656 728.714844 C 566.003906 728.003906 566.769531 727.273438 567.519531 726.527344 C 568.269531 725.777344 568.996094 725.011719 569.707031 724.226562 C 570.417969 723.445312 571.109375 722.644531 571.78125 721.828125 C 572.453125 721.007812 573.101562 720.175781 573.734375 719.324219 C 574.363281 718.476562 574.972656 717.613281 575.5625 716.730469 C 576.148438 715.851562 576.714844 714.960938 577.261719 714.054688 C 577.804688 713.144531 578.328125 712.226562 578.824219 711.292969 C 579.324219 710.359375 579.800781 709.417969 580.253906 708.460938 C 580.707031 707.503906 581.136719 706.539062 581.542969 705.5625 C 581.949219 704.582031 582.328125 703.597656 582.6875 702.601562 C 583.042969 701.605469 583.375 700.601562 583.683594 699.589844 C 583.992188 698.578125 584.273438 697.558594 584.53125 696.53125 C 584.789062 695.507812 585.023438 694.476562 585.230469 693.4375 C 585.4375 692.402344 585.617188 691.359375 585.773438 690.3125 C 585.929688 689.265625 586.0625 688.21875 586.167969 687.164062 C 586.269531 686.113281 586.351562 685.058594 586.402344 684 C 586.457031 682.945312 586.484375 681.886719 586.484375 680.832031 L 586.484375 510.996094 C 588.96875 510.792969 591.445312 510.535156 593.917969 510.214844 C 596.390625 509.898438 598.855469 509.523438 601.308594 509.089844 C 603.765625 508.65625 606.207031 508.167969 608.640625 507.621094 C 611.070312 507.074219 613.488281 506.472656 615.894531 505.816406 C 618.296875 505.15625 620.683594 504.441406 623.054688 503.671875 C 625.425781 502.902344 627.777344 502.078125 630.109375 501.199219 C 632.441406 500.320312 634.753906 499.386719 637.042969 498.402344 C 639.332031 497.414062 641.59375 496.375 643.835938 495.285156 C 646.078125 494.195312 648.289062 493.050781 650.476562 491.855469 C 652.664062 490.660156 654.824219 489.417969 656.953125 488.121094 C 659.082031 486.828125 661.183594 485.484375 663.25 484.09375 C 665.316406 482.699219 667.351562 481.261719 669.351562 479.773438 C 671.351562 478.285156 673.3125 476.753906 675.242188 475.175781 C 677.171875 473.597656 679.0625 471.976562 680.917969 470.308594 C 682.769531 468.644531 684.582031 466.933594 686.355469 465.183594 C 688.132812 463.433594 689.863281 461.644531 691.554688 459.8125 C 693.246094 457.980469 694.890625 456.113281 696.496094 454.203125 C 698.097656 452.296875 699.65625 450.355469 701.171875 448.375 C 702.683594 446.394531 704.148438 444.378906 705.570312 442.332031 C 706.988281 440.285156 708.359375 438.203125 709.683594 436.09375 C 711.007812 433.980469 712.277344 431.839844 713.503906 429.667969 C 714.726562 427.496094 715.898438 425.300781 717.019531 423.074219 C 718.140625 420.847656 719.207031 418.597656 720.222656 416.324219 C 721.238281 414.046875 722.203125 411.75 723.113281 409.429688 C 724.019531 407.109375 724.875 404.769531 725.675781 402.410156 C 726.476562 400.050781 727.222656 397.675781 727.914062 395.28125 C 728.601562 392.886719 729.234375 390.476562 729.8125 388.054688 C 730.390625 385.628906 730.914062 383.195312 731.378906 380.746094 C 731.84375 378.296875 732.25 375.839844 732.597656 373.375 C 732.949219 370.90625 733.242188 368.433594 733.476562 365.953125 C 733.710938 363.472656 733.890625 360.988281 734.007812 358.5 C 734.128906 356.011719 734.191406 353.519531 734.195312 351.027344 Z M 217.804688 59.761719 C 219.410156 58.160156 221.140625 56.714844 223.003906 55.425781 C 224.867188 54.132812 226.828125 53.015625 228.886719 52.070312 C 230.949219 51.128906 233.078125 50.375 235.273438 49.808594 C 237.46875 49.242188 239.695312 48.875 241.957031 48.707031 L 241.957031 176.027344 C 241.953125 176.871094 241.914062 177.710938 241.828125 178.550781 C 241.746094 179.390625 241.621094 180.226562 241.457031 181.050781 C 241.289062 181.878906 241.085938 182.695312 240.839844 183.503906 C 240.59375 184.3125 240.308594 185.105469 239.984375 185.882812 C 239.664062 186.664062 239.300781 187.425781 238.902344 188.167969 C 238.503906 188.914062 238.070312 189.636719 237.601562 190.335938 C 237.132812 191.039062 236.632812 191.714844 236.09375 192.367188 C 235.558594 193.019531 234.992188 193.644531 234.398438 194.238281 C 233.800781 194.835938 233.175781 195.402344 232.523438 195.9375 C 231.871094 196.472656 231.195312 196.976562 230.492188 197.445312 C 229.789062 197.914062 229.066406 198.347656 228.324219 198.746094 C 227.578125 199.144531 226.816406 199.503906 226.039062 199.828125 C 225.257812 200.148438 224.464844 200.433594 223.65625 200.679688 C 222.847656 200.925781 222.03125 201.128906 221.203125 201.296875 C 220.375 201.460938 219.542969 201.585938 218.703125 201.667969 C 217.863281 201.753906 217.019531 201.792969 216.175781 201.796875 L 90.609375 201.796875 C 90.648438 199.296875 90.925781 196.824219 91.445312 194.378906 C 91.964844 191.9375 92.714844 189.5625 93.695312 187.265625 C 94.675781 184.964844 95.867188 182.78125 97.269531 180.714844 C 98.671875 178.644531 100.261719 176.730469 102.035156 174.96875 Z M 521.804688 719.570312 L 129.308594 719.570312 C 128.039062 719.566406 126.773438 719.503906 125.511719 719.378906 C 124.25 719.253906 122.996094 719.066406 121.75 718.816406 C 120.507812 718.566406 119.277344 718.257812 118.0625 717.890625 C 116.851562 717.519531 115.65625 717.09375 114.484375 716.609375 C 113.3125 716.121094 112.167969 715.578125 111.050781 714.980469 C 109.929688 714.382812 108.84375 713.730469 107.789062 713.027344 C 106.734375 712.320312 105.714844 711.566406 104.734375 710.761719 C 103.753906 709.957031 102.816406 709.105469 101.917969 708.210938 C 101.023438 707.3125 100.171875 706.375 99.367188 705.394531 C 98.5625 704.414062 97.804688 703.394531 97.101562 702.339844 C 96.394531 701.285156 95.742188 700.199219 95.144531 699.082031 C 94.546875 697.964844 94.003906 696.820312 93.515625 695.648438 C 93.03125 694.476562 92.601562 693.285156 92.234375 692.070312 C 91.863281 690.855469 91.554688 689.628906 91.308594 688.382812 C 91.058594 687.140625 90.871094 685.886719 90.746094 684.625 C 90.621094 683.363281 90.558594 682.097656 90.554688 680.832031 L 90.554688 227.710938 L 216.175781 227.710938 C 217.871094 227.707031 219.558594 227.621094 221.242188 227.457031 C 222.925781 227.289062 224.597656 227.039062 226.257812 226.707031 C 227.917969 226.375 229.558594 225.960938 231.179688 225.46875 C 232.796875 224.976562 234.390625 224.40625 235.953125 223.757812 C 237.515625 223.109375 239.042969 222.386719 240.535156 221.589844 C 242.03125 220.789062 243.480469 219.921875 244.886719 218.980469 C 246.292969 218.039062 247.652344 217.03125 248.960938 215.960938 C 250.269531 214.886719 251.519531 213.75 252.71875 212.554688 C 253.914062 211.359375 255.050781 210.105469 256.125 208.796875 C 257.199219 207.488281 258.207031 206.132812 259.148438 204.726562 C 260.089844 203.320312 260.957031 201.871094 261.757812 200.378906 C 262.554688 198.886719 263.277344 197.359375 263.925781 195.796875 C 264.578125 194.234375 265.148438 192.640625 265.640625 191.023438 C 266.132812 189.402344 266.542969 187.765625 266.875 186.105469 C 267.207031 184.445312 267.457031 182.773438 267.625 181.089844 C 267.792969 179.40625 267.878906 177.71875 267.878906 176.027344 L 267.878906 48.398438 L 521.804688 48.398438 C 523.074219 48.402344 524.339844 48.464844 525.601562 48.589844 C 526.867188 48.714844 528.121094 48.902344 529.363281 49.152344 C 530.609375 49.398438 531.835938 49.707031 533.050781 50.078125 C 534.265625 50.445312 535.457031 50.875 536.628906 51.359375 C 537.800781 51.847656 538.945312 52.386719 540.066406 52.988281 C 541.183594 53.585938 542.269531 54.238281 543.324219 54.941406 C 544.378906 55.648438 545.398438 56.402344 546.378906 57.207031 C 547.359375 58.011719 548.296875 58.863281 549.195312 59.757812 C 550.09375 60.65625 550.945312 61.59375 551.75 62.574219 C 552.554688 63.554688 553.308594 64.570312 554.015625 65.625 C 554.71875 66.679688 555.371094 67.765625 555.96875 68.886719 C 556.570312 70.003906 557.113281 71.148438 557.597656 72.320312 C 558.082031 73.492188 558.511719 74.683594 558.882812 75.898438 C 559.25 77.109375 559.558594 78.339844 559.808594 79.582031 C 560.054688 80.828125 560.242188 82.078125 560.367188 83.339844 C 560.496094 84.605469 560.558594 85.867188 560.558594 87.136719 L 560.558594 191.054688 C 558.074219 191.253906 555.59375 191.511719 553.121094 191.824219 C 550.644531 192.140625 548.179688 192.511719 545.722656 192.941406 C 543.265625 193.371094 540.820312 193.855469 538.386719 194.398438 C 535.953125 194.941406 533.535156 195.542969 531.128906 196.195312 C 528.722656 196.851562 526.332031 197.5625 523.957031 198.332031 C 521.585938 199.097656 519.230469 199.921875 516.898438 200.796875 C 514.5625 201.671875 512.25 202.605469 509.957031 203.589844 C 507.667969 204.574219 505.398438 205.609375 503.15625 206.699219 C 500.914062 207.789062 498.699219 208.933594 496.507812 210.125 C 494.320312 211.320312 492.15625 212.5625 490.027344 213.855469 C 487.894531 215.152344 485.792969 216.492188 483.726562 217.886719 C 481.65625 219.277344 479.621094 220.714844 477.617188 222.203125 C 475.617188 223.6875 473.652344 225.222656 471.71875 226.800781 C 469.789062 228.378906 467.898438 230 466.042969 231.667969 C 464.1875 233.332031 462.371094 235.042969 460.597656 236.792969 C 458.820312 238.542969 457.085938 240.335938 455.394531 242.167969 C 453.703125 244 452.054688 245.867188 450.453125 247.777344 C 448.847656 249.683594 447.289062 251.628906 445.773438 253.613281 C 444.261719 255.59375 442.792969 257.609375 441.375 259.65625 C 439.953125 261.707031 438.582031 263.789062 437.257812 265.902344 C 435.9375 268.015625 434.664062 270.15625 433.441406 272.332031 C 432.21875 274.503906 431.046875 276.703125 429.925781 278.929688 C 428.804688 281.15625 427.738281 283.410156 426.722656 285.6875 C 425.707031 287.964844 424.742188 290.261719 423.835938 292.585938 C 422.925781 294.90625 422.074219 297.246094 421.273438 299.609375 C 420.476562 301.96875 419.730469 304.347656 419.042969 306.746094 C 418.355469 309.140625 417.722656 311.550781 417.148438 313.976562 C 416.574219 316.402344 416.054688 318.839844 415.589844 321.292969 C 415.128906 323.742188 414.722656 326.199219 414.378906 328.667969 C 414.03125 331.136719 413.738281 333.613281 413.507812 336.09375 C 413.277344 338.578125 413.101562 341.0625 412.984375 343.554688 C 412.871094 346.042969 412.8125 348.535156 412.8125 351.027344 C 412.8125 353.519531 412.871094 356.011719 412.984375 358.503906 C 413.101562 360.992188 413.277344 363.480469 413.507812 365.960938 C 413.738281 368.445312 414.03125 370.917969 414.378906 373.386719 C 414.722656 375.855469 415.128906 378.316406 415.589844 380.765625 C 416.054688 383.214844 416.574219 385.652344 417.148438 388.078125 C 417.722656 390.503906 418.355469 392.914062 419.042969 395.3125 C 419.730469 397.707031 420.476562 400.085938 421.273438 402.449219 C 422.074219 404.808594 422.925781 407.152344 423.835938 409.472656 C 424.742188 411.792969 425.707031 414.09375 426.722656 416.371094 C 427.738281 418.648438 428.804688 420.898438 429.925781 423.125 C 431.046875 425.355469 432.21875 427.554688 433.441406 429.726562 C 434.664062 431.898438 435.9375 434.042969 437.257812 436.15625 C 438.582031 438.269531 439.953125 440.351562 441.375 442.398438 C 442.792969 444.449219 444.261719 446.464844 445.773438 448.445312 C 447.289062 450.425781 448.847656 452.371094 450.453125 454.28125 C 452.054688 456.1875 453.703125 458.058594 455.394531 459.890625 C 457.089844 461.722656 458.820312 463.511719 460.597656 465.265625 C 462.371094 467.015625 464.1875 468.722656 466.042969 470.390625 C 467.898438 472.054688 469.789062 473.679688 471.71875 475.257812 C 473.652344 476.835938 475.617188 478.367188 477.617188 479.855469 C 479.621094 481.339844 481.65625 482.78125 483.726562 484.171875 C 485.792969 485.5625 487.894531 486.90625 490.027344 488.199219 C 492.15625 489.492188 494.320312 490.738281 496.507812 491.929688 C 498.699219 493.125 500.914062 494.265625 503.15625 495.355469 C 505.398438 496.445312 507.667969 497.484375 509.957031 498.46875 C 512.25 499.453125 514.5625 500.382812 516.898438 501.257812 C 519.230469 502.136719 521.585938 502.957031 523.957031 503.726562 C 526.332031 504.492188 528.722656 505.203125 531.128906 505.859375 C 533.535156 506.515625 535.953125 507.113281 538.386719 507.65625 C 540.820312 508.199219 543.265625 508.6875 545.722656 509.117188 C 548.179688 509.542969 550.644531 509.917969 553.121094 510.230469 C 555.59375 510.546875 558.074219 510.800781 560.558594 511 L 560.558594 680.832031 C 560.558594 682.097656 560.496094 683.363281 560.367188 684.625 C 560.242188 685.886719 560.054688 687.140625 559.808594 688.382812 C 559.558594 689.628906 559.25 690.855469 558.878906 692.070312 C 558.511719 693.285156 558.082031 694.476562 557.597656 695.648438 C 557.113281 696.820312 556.570312 697.964844 555.96875 699.082031 C 555.371094 700.199219 554.71875 701.285156 554.015625 702.339844 C 553.308594 703.394531 552.554688 704.414062 551.75 705.394531 C 550.945312 706.375 550.09375 707.3125 549.195312 708.210938 C 548.296875 709.105469 547.359375 709.957031 546.378906 710.761719 C 545.398438 711.566406 544.378906 712.320312 543.324219 713.027344 C 542.269531 713.730469 541.183594 714.382812 540.066406 714.980469 C 538.945312 715.578125 537.800781 716.121094 536.628906 716.609375 C 535.457031 717.09375 534.265625 717.519531 533.050781 717.890625 C 531.835938 718.257812 530.609375 718.566406 529.363281 718.816406 C 528.121094 719.066406 526.867188 719.253906 525.601562 719.378906 C 524.339844 719.503906 523.074219 719.566406 521.804688 719.570312 Z M 573.695312 485.730469 C 571.488281 485.734375 569.28125 485.679688 567.078125 485.570312 C 564.875 485.464844 562.671875 485.300781 560.476562 485.085938 C 558.28125 484.871094 556.089844 484.601562 553.910156 484.28125 C 551.726562 483.957031 549.550781 483.582031 547.386719 483.152344 C 545.222656 482.722656 543.070312 482.238281 540.929688 481.703125 C 538.789062 481.167969 536.660156 480.582031 534.550781 479.941406 C 532.4375 479.304688 530.34375 478.613281 528.265625 477.871094 C 526.1875 477.128906 524.128906 476.335938 522.089844 475.492188 C 520.050781 474.648438 518.03125 473.757812 516.035156 472.8125 C 514.042969 471.871094 512.070312 470.882812 510.125 469.84375 C 508.175781 468.804688 506.257812 467.71875 504.363281 466.585938 C 502.46875 465.453125 500.605469 464.273438 498.769531 463.050781 C 496.933594 461.824219 495.128906 460.554688 493.355469 459.242188 C 491.582031 457.929688 489.84375 456.574219 488.136719 455.175781 C 486.429688 453.777344 484.757812 452.339844 483.121094 450.859375 C 481.484375 449.378906 479.886719 447.859375 478.324219 446.300781 C 476.761719 444.742188 475.242188 443.144531 473.757812 441.511719 C 472.273438 439.878906 470.832031 438.210938 469.429688 436.507812 C 468.027344 434.804688 466.671875 433.066406 465.355469 431.292969 C 464.039062 429.523438 462.765625 427.722656 461.539062 425.890625 C 460.3125 424.054688 459.128906 422.195312 457.992188 420.304688 C 456.855469 418.410156 455.769531 416.496094 454.726562 414.550781 C 453.683594 412.605469 452.691406 410.636719 451.746094 408.644531 C 450.800781 406.648438 449.902344 404.636719 449.058594 402.597656 C 448.210938 400.5625 447.414062 398.503906 446.667969 396.429688 C 445.921875 394.351562 445.230469 392.257812 444.585938 390.148438 C 443.945312 388.039062 443.351562 385.914062 442.8125 383.773438 C 442.277344 381.636719 441.789062 379.484375 441.355469 377.320312 C 440.925781 375.15625 440.542969 372.984375 440.21875 370.804688 C 439.890625 368.621094 439.621094 366.433594 439.402344 364.238281 C 439.183594 362.042969 439.015625 359.84375 438.90625 357.640625 C 438.796875 355.4375 438.738281 353.234375 438.734375 351.027344 C 446.226562 172.277344 700.804688 172.332031 708.269531 351.027344 C 708.269531 353.230469 708.210938 355.433594 708.101562 357.632812 C 707.992188 359.828125 707.828125 362.023438 707.609375 364.214844 C 707.390625 366.40625 707.121094 368.59375 706.792969 370.769531 C 706.46875 372.949219 706.089844 375.117188 705.660156 377.277344 C 705.230469 379.433594 704.746094 381.582031 704.207031 383.71875 C 703.671875 385.855469 703.082031 387.976562 702.441406 390.082031 C 701.800781 392.1875 701.109375 394.277344 700.367188 396.351562 C 699.625 398.425781 698.832031 400.476562 697.988281 402.511719 C 697.144531 404.546875 696.253906 406.558594 695.308594 408.550781 C 694.367188 410.539062 693.378906 412.503906 692.339844 414.449219 C 691.300781 416.390625 690.214844 418.304688 689.082031 420.195312 C 687.949219 422.082031 686.773438 423.941406 685.550781 425.773438 C 684.328125 427.605469 683.058594 429.40625 681.746094 431.171875 C 680.433594 432.941406 679.082031 434.679688 677.683594 436.382812 C 676.289062 438.082031 674.851562 439.75 673.371094 441.382812 C 671.894531 443.015625 670.375 444.613281 668.820312 446.167969 C 667.261719 447.726562 665.667969 449.246094 664.039062 450.726562 C 662.40625 452.207031 660.742188 453.644531 659.039062 455.042969 C 657.335938 456.441406 655.601562 457.796875 653.835938 459.113281 C 652.066406 460.425781 650.265625 461.695312 648.4375 462.921875 C 646.605469 464.144531 644.746094 465.324219 642.859375 466.460938 C 640.972656 467.59375 639.058594 468.683594 637.117188 469.722656 C 635.175781 470.761719 633.210938 471.753906 631.21875 472.699219 C 629.230469 473.644531 627.21875 474.539062 625.183594 475.386719 C 623.148438 476.230469 621.097656 477.027344 619.023438 477.773438 C 616.949219 478.515625 614.859375 479.210938 612.753906 479.855469 C 610.648438 480.496094 608.527344 481.089844 606.390625 481.628906 C 604.253906 482.167969 602.105469 482.652344 599.945312 483.085938 C 597.789062 483.519531 595.617188 483.902344 593.441406 484.230469 C 591.261719 484.558594 589.078125 484.832031 586.886719 485.054688 C 584.695312 485.273438 582.496094 485.441406 580.296875 485.554688 C 578.097656 485.667969 575.898438 485.726562 573.695312 485.730469 Z M 573.695312 485.730469 " fill-opacity="1" fill-rule="nonzero"/></g><path fill="#0c2359" d="M 155.082031 315.820312 L 383.183594 315.820312 C 384.027344 315.808594 384.863281 315.714844 385.6875 315.539062 C 386.511719 315.363281 387.3125 315.109375 388.085938 314.78125 C 388.863281 314.449219 389.597656 314.046875 390.292969 313.570312 C 390.992188 313.097656 391.636719 312.558594 392.226562 311.957031 C 392.816406 311.359375 393.347656 310.707031 393.8125 310.003906 C 394.273438 309.300781 394.667969 308.558594 394.988281 307.777344 C 395.308594 307 395.546875 306.195312 395.710938 305.367188 C 395.875 304.542969 395.957031 303.707031 395.957031 302.863281 C 395.957031 302.019531 395.875 301.1875 395.710938 300.359375 C 395.546875 299.53125 395.308594 298.730469 394.988281 297.949219 C 394.667969 297.167969 394.273438 296.429688 393.8125 295.722656 C 393.347656 295.019531 392.816406 294.371094 392.226562 293.769531 C 391.636719 293.167969 390.992188 292.632812 390.292969 292.15625 C 389.597656 291.683594 388.863281 291.277344 388.085938 290.949219 C 387.3125 290.617188 386.511719 290.363281 385.6875 290.1875 C 384.863281 290.011719 384.027344 289.917969 383.183594 289.90625 L 155.082031 289.90625 C 154.238281 289.917969 153.40625 290.011719 152.578125 290.1875 C 151.753906 290.363281 150.953125 290.617188 150.179688 290.949219 C 149.40625 291.277344 148.667969 291.683594 147.972656 292.15625 C 147.273438 292.632812 146.632812 293.167969 146.039062 293.769531 C 145.449219 294.371094 144.917969 295.019531 144.457031 295.722656 C 143.992188 296.429688 143.597656 297.167969 143.277344 297.949219 C 142.960938 298.730469 142.71875 299.53125 142.554688 300.359375 C 142.390625 301.1875 142.308594 302.019531 142.308594 302.863281 C 142.308594 303.707031 142.390625 304.542969 142.554688 305.367188 C 142.71875 306.195312 142.960938 307 143.277344 307.777344 C 143.597656 308.558594 143.992188 309.300781 144.457031 310.003906 C 144.917969 310.707031 145.449219 311.359375 146.039062 311.957031 C 146.632812 312.558594 147.273438 313.097656 147.972656 313.570312 C 148.667969 314.046875 149.40625 314.449219 150.179688 314.78125 C 150.953125 315.109375 151.753906 315.363281 152.578125 315.539062 C 153.40625 315.714844 154.238281 315.808594 155.082031 315.820312 Z M 155.082031 315.820312 " fill-opacity="1" fill-rule="nonzero"/><path fill="#0c2359" d="M 155.082031 422.292969 L 350.917969 422.292969 C 351.761719 422.28125 352.597656 422.1875 353.421875 422.011719 C 354.246094 421.835938 355.046875 421.582031 355.824219 421.253906 C 356.597656 420.921875 357.335938 420.519531 358.03125 420.042969 C 358.730469 419.570312 359.375 419.03125 359.964844 418.433594 C 360.558594 417.832031 361.085938 417.179688 361.550781 416.476562 C 362.015625 415.773438 362.40625 415.03125 362.726562 414.25 C 363.046875 413.472656 363.289062 412.667969 363.453125 411.839844 C 363.617188 411.011719 363.699219 410.179688 363.699219 409.335938 C 363.699219 408.492188 363.617188 407.65625 363.453125 406.828125 C 363.289062 406 363.046875 405.199219 362.726562 404.417969 C 362.40625 403.636719 362.015625 402.894531 361.550781 402.191406 C 361.085938 401.488281 360.558594 400.835938 359.964844 400.238281 C 359.371094 399.636719 358.726562 399.097656 358.03125 398.625 C 357.335938 398.148438 356.597656 397.746094 355.820312 397.417969 C 355.046875 397.085938 354.246094 396.832031 353.421875 396.65625 C 352.59375 396.484375 351.761719 396.390625 350.917969 396.378906 L 155.082031 396.378906 C 154.238281 396.390625 153.402344 396.484375 152.578125 396.660156 C 151.753906 396.835938 150.953125 397.085938 150.179688 397.417969 C 149.402344 397.75 148.667969 398.152344 147.972656 398.628906 C 147.273438 399.101562 146.628906 399.640625 146.039062 400.238281 C 145.445312 400.839844 144.917969 401.492188 144.453125 402.195312 C 143.988281 402.898438 143.597656 403.640625 143.277344 404.417969 C 142.957031 405.199219 142.714844 406.003906 142.554688 406.832031 C 142.390625 407.65625 142.308594 408.492188 142.308594 409.335938 C 142.308594 410.175781 142.390625 411.011719 142.554688 411.839844 C 142.714844 412.667969 142.957031 413.46875 143.277344 414.25 C 143.597656 415.03125 143.988281 415.769531 144.453125 416.472656 C 144.917969 417.175781 145.445312 417.828125 146.039062 418.429688 C 146.628906 419.03125 147.273438 419.566406 147.972656 420.042969 C 148.667969 420.515625 149.402344 420.921875 150.179688 421.25 C 150.953125 421.582031 151.753906 421.835938 152.578125 422.011719 C 153.402344 422.183594 154.238281 422.277344 155.082031 422.292969 Z M 155.082031 422.292969 " fill-opacity="1" fill-rule="nonzero"/><path fill="#0c2359" d="M 155.082031 528.761719 L 446.730469 528.761719 C 447.582031 528.761719 448.421875 528.679688 449.257812 528.515625 C 450.09375 528.347656 450.902344 528.101562 451.691406 527.777344 C 452.476562 527.449219 453.222656 527.050781 453.929688 526.578125 C 454.636719 526.105469 455.292969 525.570312 455.894531 524.96875 C 456.496094 524.367188 457.035156 523.710938 457.507812 523.003906 C 457.980469 522.296875 458.378906 521.550781 458.703125 520.765625 C 459.03125 519.976562 459.277344 519.167969 459.441406 518.332031 C 459.609375 517.5 459.691406 516.65625 459.691406 515.804688 C 459.691406 514.957031 459.609375 514.113281 459.441406 513.277344 C 459.277344 512.445312 459.03125 511.632812 458.703125 510.847656 C 458.378906 510.0625 457.980469 509.316406 457.507812 508.609375 C 457.035156 507.898438 456.496094 507.246094 455.894531 506.644531 C 455.292969 506.042969 454.636719 505.503906 453.929688 505.03125 C 453.222656 504.558594 452.476562 504.160156 451.691406 503.835938 C 450.902344 503.507812 450.09375 503.265625 449.257812 503.097656 C 448.421875 502.933594 447.582031 502.847656 446.730469 502.847656 L 155.082031 502.847656 C 154.238281 502.863281 153.402344 502.957031 152.578125 503.128906 C 151.753906 503.304688 150.953125 503.558594 150.179688 503.890625 C 149.402344 504.21875 148.667969 504.625 147.972656 505.097656 C 147.273438 505.574219 146.628906 506.109375 146.039062 506.710938 C 145.445312 507.3125 144.917969 507.964844 144.453125 508.667969 C 143.988281 509.371094 143.597656 510.113281 143.277344 510.890625 C 142.957031 511.671875 142.714844 512.472656 142.554688 513.300781 C 142.390625 514.128906 142.308594 514.964844 142.308594 515.804688 C 142.308594 516.648438 142.390625 517.484375 142.554688 518.3125 C 142.714844 519.136719 142.957031 519.941406 143.277344 520.722656 C 143.597656 521.5 143.988281 522.242188 144.453125 522.945312 C 144.917969 523.648438 145.445312 524.300781 146.039062 524.902344 C 146.628906 525.5 147.273438 526.039062 147.972656 526.515625 C 148.667969 526.988281 149.402344 527.390625 150.179688 527.722656 C 150.953125 528.054688 151.753906 528.308594 152.578125 528.480469 C 153.402344 528.65625 154.238281 528.75 155.082031 528.761719 Z M 155.082031 528.761719 " fill-opacity="1" fill-rule="nonzero"/><path fill="#0c2359" d="M 511.394531 609.320312 L 155.082031 609.320312 C 154.238281 609.332031 153.402344 609.425781 152.578125 609.601562 C 151.753906 609.777344 150.953125 610.03125 150.179688 610.359375 C 149.402344 610.691406 148.667969 611.09375 147.972656 611.570312 C 147.273438 612.042969 146.628906 612.582031 146.039062 613.183594 C 145.445312 613.78125 144.917969 614.433594 144.453125 615.136719 C 143.988281 615.839844 143.597656 616.582031 143.277344 617.363281 C 142.957031 618.140625 142.714844 618.945312 142.554688 619.773438 C 142.390625 620.597656 142.308594 621.433594 142.308594 622.277344 C 142.308594 623.121094 142.390625 623.953125 142.554688 624.78125 C 142.714844 625.609375 142.957031 626.414062 143.277344 627.191406 C 143.597656 627.972656 143.988281 628.714844 144.453125 629.417969 C 144.917969 630.121094 145.445312 630.773438 146.039062 631.371094 C 146.628906 631.972656 147.273438 632.511719 147.972656 632.984375 C 148.667969 633.460938 149.402344 633.863281 150.179688 634.195312 C 150.953125 634.523438 151.753906 634.777344 152.578125 634.953125 C 153.402344 635.128906 154.238281 635.222656 155.082031 635.234375 L 511.394531 635.234375 C 512.238281 635.222656 513.070312 635.128906 513.898438 634.953125 C 514.722656 634.777344 515.523438 634.523438 516.296875 634.195312 C 517.070312 633.863281 517.808594 633.460938 518.503906 632.984375 C 519.203125 632.511719 519.847656 631.972656 520.4375 631.371094 C 521.03125 630.773438 521.558594 630.121094 522.023438 629.417969 C 522.488281 628.714844 522.878906 627.972656 523.199219 627.191406 C 523.519531 626.414062 523.761719 625.609375 523.921875 624.78125 C 524.085938 623.953125 524.167969 623.121094 524.167969 622.277344 C 524.167969 621.433594 524.085938 620.597656 523.921875 619.773438 C 523.761719 618.945312 523.519531 618.140625 523.199219 617.363281 C 522.878906 616.582031 522.488281 615.839844 522.023438 615.136719 C 521.558594 614.433594 521.03125 613.78125 520.4375 613.183594 C 519.847656 612.582031 519.203125 612.042969 518.503906 611.570312 C 517.808594 611.09375 517.070312 610.691406 516.296875 610.359375 C 515.523438 610.03125 514.722656 609.777344 513.898438 609.601562 C 513.070312 609.425781 512.238281 609.332031 511.394531 609.320312 Z M 511.394531 609.320312 " fill-opacity="1" fill-rule="nonzero"/><path fill="#0c2359" d="M 625.035156 299.515625 C 624.433594 298.914062 623.777344 298.378906 623.070312 297.90625 C 622.363281 297.433594 621.617188 297.035156 620.832031 296.707031 C 620.042969 296.382812 619.234375 296.136719 618.398438 295.96875 C 617.566406 295.804688 616.722656 295.722656 615.871094 295.722656 C 615.019531 295.722656 614.175781 295.804688 613.34375 295.96875 C 612.507812 296.136719 611.695312 296.382812 610.910156 296.707031 C 610.125 297.035156 609.378906 297.433594 608.667969 297.90625 C 607.960938 298.378906 607.308594 298.914062 606.707031 299.515625 L 573.503906 332.707031 L 540.300781 299.515625 C 539.699219 298.910156 539.046875 298.367188 538.335938 297.886719 C 537.628906 297.410156 536.882812 297.007812 536.09375 296.675781 C 535.308594 296.34375 534.496094 296.09375 533.65625 295.925781 C 532.820312 295.753906 531.972656 295.667969 531.121094 295.667969 C 530.265625 295.664062 529.417969 295.746094 528.582031 295.910156 C 527.742188 296.074219 526.929688 296.320312 526.136719 296.644531 C 525.347656 296.972656 524.597656 297.371094 523.886719 297.84375 C 523.175781 298.316406 522.519531 298.855469 521.914062 299.460938 C 521.3125 300.066406 520.773438 300.722656 520.296875 301.433594 C 519.824219 302.144531 519.425781 302.894531 519.097656 303.683594 C 518.773438 304.472656 518.527344 305.285156 518.363281 306.125 C 518.199219 306.960938 518.117188 307.808594 518.121094 308.660156 C 518.121094 309.515625 518.207031 310.359375 518.378906 311.199219 C 518.546875 312.035156 518.796875 312.847656 519.128906 313.632812 C 519.457031 314.421875 519.863281 315.167969 520.339844 315.875 C 520.820312 316.585938 521.363281 317.238281 521.972656 317.839844 L 555.171875 351.027344 L 521.972656 384.21875 C 521.371094 384.820312 520.835938 385.472656 520.363281 386.179688 C 519.894531 386.886719 519.496094 387.636719 519.171875 388.421875 C 518.847656 389.207031 518.601562 390.015625 518.4375 390.847656 C 518.273438 391.683594 518.191406 392.523438 518.191406 393.375 C 518.191406 394.222656 518.277344 395.066406 518.441406 395.898438 C 518.609375 396.730469 518.855469 397.539062 519.179688 398.324219 C 519.503906 399.109375 519.90625 399.855469 520.378906 400.5625 C 520.847656 401.269531 521.386719 401.921875 521.988281 402.523438 C 522.589844 403.125 523.242188 403.660156 523.949219 404.132812 C 524.65625 404.605469 525.402344 405.003906 526.1875 405.328125 C 526.972656 405.65625 527.78125 405.902344 528.613281 406.066406 C 529.449219 406.234375 530.289062 406.316406 531.140625 406.316406 C 531.992188 406.320312 532.832031 406.238281 533.667969 406.070312 C 534.5 405.90625 535.308594 405.664062 536.097656 405.339844 C 536.882812 405.015625 537.628906 404.617188 538.335938 404.144531 C 539.042969 403.675781 539.699219 403.140625 540.300781 402.539062 L 573.503906 369.351562 L 606.707031 402.539062 C 607.308594 403.140625 607.960938 403.675781 608.671875 404.148438 C 609.378906 404.621094 610.125 405.019531 610.910156 405.34375 C 611.695312 405.667969 612.507812 405.914062 613.339844 406.078125 C 614.175781 406.246094 615.019531 406.328125 615.867188 406.328125 C 616.71875 406.328125 617.5625 406.242188 618.394531 406.078125 C 619.230469 405.910156 620.039062 405.664062 620.824219 405.339844 C 621.613281 405.015625 622.359375 404.617188 623.066406 404.144531 C 623.773438 403.671875 624.425781 403.132812 625.027344 402.53125 C 625.628906 401.929688 626.167969 401.277344 626.640625 400.570312 C 627.113281 399.863281 627.511719 399.117188 627.835938 398.332031 C 628.164062 397.546875 628.410156 396.738281 628.574219 395.902344 C 628.742188 395.070312 628.824219 394.226562 628.824219 393.375 C 628.824219 392.527344 628.742188 391.683594 628.578125 390.851562 C 628.410156 390.015625 628.164062 389.207031 627.839844 388.421875 C 627.515625 387.636719 627.117188 386.886719 626.644531 386.179688 C 626.171875 385.472656 625.636719 384.820312 625.035156 384.21875 L 591.832031 351.027344 L 625.035156 317.839844 C 625.636719 317.238281 626.175781 316.582031 626.648438 315.875 C 627.121094 315.167969 627.519531 314.421875 627.84375 313.636719 C 628.171875 312.851562 628.417969 312.039062 628.582031 311.207031 C 628.75 310.371094 628.832031 309.527344 628.832031 308.679688 C 628.832031 307.828125 628.75 306.984375 628.582031 306.148438 C 628.417969 305.316406 628.171875 304.503906 627.84375 303.71875 C 627.519531 302.933594 627.121094 302.1875 626.648438 301.480469 C 626.175781 300.773438 625.636719 300.117188 625.035156 299.515625 Z M 625.035156 299.515625 " fill-opacity="1" fill-rule="nonzero"/></svg>