<svg xmlns="http://www.w3.org/2000/svg" xmlns:xlink="http://www.w3.org/1999/xlink" width="1024" zoomAndPan="magnify" viewBox="0 0 768 767.999994" height="1024" preserveAspectRatio="xMidYMid meet" version="1.0"><defs><clipPath id="id1"><path d="M 360 428 L 700 428 L 700 767.660156 L 360 767.660156 Z M 360 428 " clip-rule="nonzero"/></clipPath><clipPath id="id2"><path d="M 50.457031 13.160156 L 625 13.160156 L 625 724 L 50.457031 724 Z M 50.457031 13.160156 " clip-rule="nonzero"/></clipPath></defs><rect x="-76.8" width="921.6" fill="#ffffff" y="-76.799999" height="921.599993" fill-opacity="1"/><rect x="-76.8" width="921.6" fill="#ffffff" y="-76.799999" height="921.599993" fill-opacity="1"/><rect x="-76.8" width="921.6" fill="#ffffff" y="-76.799999" height="921.599993" fill-opacity="1"/><rect x="-76.8" width="921.6" fill="#ffffff" y="-76.799999" height="921.599993" fill-opacity="1"/><g clip-path="url(#id1)"><path fill="#0c2359" d="M 650.152344 478.058594 C 618.101562 446.03125 575.511719 428.386719 530.21875 428.386719 C 484.902344 428.386719 442.3125 446.03125 410.273438 478.085938 C 378.222656 510.113281 360.582031 552.730469 360.582031 598.023438 C 360.582031 643.34375 378.222656 685.9375 410.273438 717.964844 C 442.300781 750.019531 484.890625 767.660156 530.207031 767.660156 C 575.511719 767.660156 618.101562 750.019531 650.152344 717.976562 C 716.292969 651.832031 716.292969 544.203125 650.152344 478.058594 Z M 621.949219 689.773438 C 597.441406 714.28125 564.863281 727.761719 530.207031 727.761719 C 495.554688 727.761719 462.972656 714.269531 438.476562 689.773438 C 413.972656 665.261719 400.480469 632.679688 400.480469 598.023438 C 400.480469 563.367188 413.972656 530.785156 438.476562 506.277344 C 462.984375 481.78125 495.566406 468.289062 530.21875 468.289062 C 564.863281 468.289062 597.441406 481.769531 621.949219 506.277344 C 672.523438 556.855469 672.523438 639.183594 621.949219 689.773438 Z M 621.949219 689.773438 " fill-opacity="1" fill-rule="nonzero"/></g><path fill="#0c2359" d="M 614.617188 588.996094 L 541.136719 588.996094 L 541.136719 515.53125 C 541.136719 510.023438 536.671875 505.558594 531.164062 505.558594 C 525.65625 505.558594 521.191406 510.023438 521.191406 515.53125 L 521.191406 588.996094 L 447.695312 588.996094 C 442.1875 588.996094 437.722656 593.460938 437.722656 598.96875 C 437.722656 604.476562 442.1875 608.941406 447.695312 608.941406 L 521.191406 608.941406 L 521.191406 682.441406 C 521.191406 687.949219 525.644531 692.425781 531.164062 692.425781 C 536.671875 692.425781 541.136719 687.960938 541.136719 682.441406 L 541.136719 608.941406 L 614.617188 608.941406 C 620.125 608.941406 624.589844 604.488281 624.589844 598.96875 C 624.589844 593.460938 620.125 588.996094 614.617188 588.996094 Z M 614.617188 588.996094 " fill-opacity="1" fill-rule="nonzero"/><g clip-path="url(#id2)"><path fill="#0c2359" d="M 360.832031 683.382812 L 93.804688 683.382812 C 92.6875 683.382812 90.546875 682.214844 90.207031 681.433594 L 90.207031 97.300781 L 194.863281 97.300781 L 194.863281 117.179688 L 142.53125 117.179688 C 137.023438 117.179688 132.558594 121.644531 132.558594 127.167969 L 132.558594 618.523438 C 132.558594 624.03125 137.023438 628.507812 142.53125 628.507812 L 334.566406 628.507812 C 340.070312 628.507812 344.535156 624.042969 344.535156 618.523438 C 344.535156 613.015625 340.070312 608.550781 334.566406 608.550781 L 152.515625 608.550781 L 152.515625 137.136719 L 194.863281 137.136719 L 194.863281 159.359375 C 194.863281 170.375 203.792969 179.300781 214.808594 179.300781 L 464.496094 179.300781 C 475.507812 179.300781 484.4375 170.375 484.4375 159.359375 L 484.4375 137.136719 L 520.238281 137.136719 L 520.238281 394.046875 C 520.238281 399.554688 524.699219 404.015625 530.21875 404.015625 C 535.726562 404.015625 540.191406 399.566406 540.191406 394.046875 L 540.191406 127.167969 C 540.191406 121.660156 535.726562 117.183594 530.21875 117.183594 L 484.4375 117.183594 L 484.4375 97.300781 L 584.742188 97.300781 L 584.742188 420.339844 C 584.742188 431.355469 593.671875 440.285156 604.683594 440.285156 C 615.710938 440.285156 624.640625 431.355469 624.640625 420.339844 L 624.640625 77.355469 C 624.640625 66.339844 615.714844 57.398438 604.683594 57.398438 L 484.449219 57.398438 L 484.449219 33.105469 C 484.4375 22.089844 475.507812 13.160156 464.496094 13.160156 L 214.808594 13.160156 C 203.792969 13.160156 194.863281 22.089844 194.863281 33.105469 L 194.863281 57.414062 L 70.253906 57.414062 C 59.238281 57.414062 50.308594 66.355469 50.308594 77.371094 L 50.308594 681.433594 C 50.308594 706.472656 72.792969 723.285156 93.804688 723.285156 L 360.832031 723.285156 C 371.847656 723.285156 380.773438 714.355469 380.773438 703.339844 C 380.773438 692.324219 371.847656 683.382812 360.832031 683.382812 Z M 234.761719 53.0625 L 444.550781 53.0625 L 444.550781 139.402344 L 234.761719 139.402344 Z M 234.761719 53.0625 " fill-opacity="1" fill-rule="nonzero"/></g><path fill="#0c2359" d="M 477.632812 227.277344 L 194.375 227.277344 C 190.703125 227.277344 187.722656 230.257812 187.722656 233.929688 C 187.722656 237.601562 190.703125 240.566406 194.375 240.566406 L 477.632812 240.566406 C 481.304688 240.566406 484.273438 237.601562 484.273438 233.929688 C 484.273438 230.257812 481.304688 227.277344 477.632812 227.277344 Z M 477.632812 227.277344 " fill-opacity="1" fill-rule="nonzero"/><path fill="#0c2359" d="M 477.632812 305.617188 L 194.375 305.617188 C 190.703125 305.617188 187.722656 308.585938 187.722656 312.269531 C 187.722656 315.941406 190.703125 318.910156 194.375 318.910156 L 477.632812 318.910156 C 481.304688 318.910156 484.273438 315.941406 484.273438 312.269531 C 484.273438 308.585938 481.304688 305.617188 477.632812 305.617188 Z M 477.632812 305.617188 " fill-opacity="1" fill-rule="nonzero"/><path fill="#0c2359" d="M 387.175781 460.78125 C 387.175781 457.109375 384.207031 454.140625 380.535156 454.140625 L 194.375 454.140625 C 190.703125 454.140625 187.722656 457.109375 187.722656 460.78125 C 187.722656 464.453125 190.703125 467.421875 194.375 467.421875 L 380.535156 467.421875 C 384.195312 467.421875 387.175781 464.453125 387.175781 460.78125 Z M 387.175781 460.78125 " fill-opacity="1" fill-rule="nonzero"/><path fill="#0c2359" d="M 484.273438 385.996094 C 484.273438 382.3125 481.304688 379.34375 477.632812 379.34375 L 194.375 379.34375 C 190.703125 379.34375 187.722656 382.3125 187.722656 385.996094 C 187.722656 389.667969 190.703125 392.636719 194.375 392.636719 L 477.632812 392.636719 C 481.304688 392.648438 484.273438 389.667969 484.273438 385.996094 Z M 484.273438 385.996094 " fill-opacity="1" fill-rule="nonzero"/><path fill="#0c2359" d="M 194.375 531.527344 C 190.703125 531.527344 187.722656 534.496094 187.722656 538.179688 C 187.722656 541.851562 190.703125 544.820312 194.375 544.820312 L 339.65625 544.820312 C 343.328125 544.820312 346.296875 541.851562 346.296875 538.179688 C 346.296875 534.496094 343.328125 531.527344 339.65625 531.527344 Z M 194.375 531.527344 " fill-opacity="1" fill-rule="nonzero"/></svg>