<svg xmlns="http://www.w3.org/2000/svg" xmlns:xlink="http://www.w3.org/1999/xlink" width="1024" zoomAndPan="magnify" viewBox="0 0 768 767.999994" height="1024" preserveAspectRatio="xMidYMid meet" version="1.0"><defs><clipPath id="id1"><path d="M 0 0 L 754.5 0 L 754.5 754.5 L 0 754.5 Z M 0 0 " clip-rule="nonzero"/></clipPath></defs><rect x="-76.8" width="921.6" fill="#ff914d" y="-76.799999" height="921.599993" fill-opacity="1"/><rect x="-76.8" width="921.6" fill="#ffffff" y="-76.799999" height="921.599993" fill-opacity="1"/><rect x="-76.8" width="921.6" fill="#ff914d" y="-76.799999" height="921.599993" fill-opacity="1"/><g clip-path="url(#id1)"><path fill="#ffffff" d="M 377.25 754.5 C 353.039062 754.5 336.277344 731.734375 321.484375 711.65625 C 312.886719 700.011719 302.226562 685.511719 295.140625 683.644531 C 283.234375 683.445312 269.78125 689.21875 256.628906 694.925781 C 232.78125 705.292969 206.339844 714.316406 188.558594 703.980469 C 168.023438 692.105469 165.039062 665.535156 162.152344 639.847656 C 160.511719 625.183594 158.476562 606.945312 153 601.5 C 147.554688 596.023438 129.316406 593.988281 114.652344 592.347656 C 88.964844 589.460938 62.359375 586.476562 50.519531 565.941406 C 38.808594 545.667969 49.371094 521.359375 59.574219 497.871094 C 65.542969 484.191406 72.925781 467.132812 70.855469 459.390625 C 68.953125 452.304688 54.488281 441.613281 42.84375 433.050781 C 22.765625 418.253906 0 401.460938 0 377.25 C 0 353.039062 22.765625 336.246094 42.875 321.449219 C 54.488281 312.886719 68.988281 302.195312 70.890625 295.109375 C 72.957031 287.367188 65.542969 270.308594 59.574219 256.628906 C 49.371094 233.109375 38.808594 208.800781 50.519531 188.558594 C 62.359375 168.058594 88.964844 165.039062 114.683594 162.152344 C 129.316406 160.511719 147.554688 158.476562 153.03125 153 C 158.476562 147.519531 160.542969 129.316406 162.152344 114.652344 C 165.039062 88.964844 168.023438 62.394531 188.59375 50.519531 C 206.304688 40.25 232.78125 49.207031 256.628906 59.574219 C 269.78125 65.28125 283.363281 71.183594 292.1875 71.183594 C 302.226562 68.953125 312.886719 54.457031 321.484375 42.808594 C 336.277344 22.765625 353.074219 0 377.25 0 C 401.460938 0 418.222656 22.765625 433.015625 42.84375 C 441.613281 54.488281 452.273438 68.988281 459.359375 70.859375 C 471.003906 70.726562 484.71875 65.28125 497.871094 59.574219 C 521.65625 49.207031 548.09375 40.152344 565.941406 50.519531 C 586.476562 62.394531 589.460938 88.964844 592.347656 114.652344 C 593.988281 129.316406 596.023438 147.554688 601.5 153 C 606.945312 158.476562 625.183594 160.511719 639.847656 162.152344 C 665.535156 165.039062 692.140625 168.023438 703.980469 188.558594 C 715.691406 208.832031 705.128906 233.140625 694.925781 256.628906 C 688.957031 270.308594 681.574219 287.367188 683.644531 295.109375 C 685.546875 302.195312 700.011719 312.886719 711.65625 321.449219 C 731.734375 336.246094 754.5 353.039062 754.5 377.25 C 754.5 401.460938 731.734375 418.253906 711.625 433.050781 C 700.011719 441.613281 685.511719 452.304688 683.609375 459.390625 C 681.542969 467.167969 688.925781 484.191406 694.894531 497.871094 C 705.128906 521.390625 715.691406 545.699219 703.949219 565.941406 C 692.105469 586.445312 665.5 589.460938 639.78125 592.347656 C 625.152344 593.988281 606.914062 596.023438 601.433594 601.5 C 595.988281 606.980469 593.921875 625.183594 592.316406 639.847656 C 589.429688 665.566406 586.441406 692.140625 565.875 704.015625 C 548.160156 714.28125 521.71875 705.328125 497.839844 694.925781 C 484.71875 689.21875 471.136719 683.316406 462.277344 683.316406 C 452.242188 685.546875 441.578125 700.042969 432.984375 711.691406 C 418.222656 731.734375 401.425781 754.5 377.25 754.5 Z M 292.15625 650.511719 C 296.191406 650.511719 300.027344 651.003906 303.605469 651.953125 C 321.8125 656.808594 335.0625 674.816406 347.890625 692.203125 C 356.519531 703.949219 369.640625 721.695312 377.25 721.695312 C 384.859375 721.695312 397.949219 703.949219 406.609375 692.203125 C 419.46875 674.785156 432.722656 656.777344 450.929688 651.921875 C 468.378906 647.195312 490.621094 655.988281 510.960938 664.8125 C 523.917969 670.421875 537.300781 676.261719 545.832031 676.261719 C 546.980469 676.261719 548.554688 676.128906 549.503906 675.574219 C 555.738281 671.996094 558.164062 650.410156 559.773438 636.140625 C 562.199219 614.359375 564.726562 591.824219 578.308594 578.242188 C 591.890625 564.660156 614.425781 562.136719 636.207031 559.675781 C 650.511719 558.066406 672.0625 555.640625 675.636719 549.441406 C 679.050781 543.503906 670.519531 523.886719 664.878906 510.894531 C 656.054688 490.621094 646.933594 469.660156 651.953125 450.832031 C 656.808594 432.65625 674.816406 419.402344 692.238281 406.578125 C 703.949219 397.949219 721.695312 384.859375 721.695312 377.25 C 721.695312 369.640625 703.949219 356.550781 692.203125 347.855469 C 674.816406 335.03125 656.808594 321.777344 651.921875 303.605469 C 646.902344 284.773438 656.019531 263.8125 664.84375 243.539062 C 670.488281 230.550781 679.050781 210.898438 675.605469 204.996094 C 672.03125 198.792969 650.445312 196.367188 636.207031 194.757812 C 614.425781 192.300781 591.855469 189.773438 578.308594 176.191406 C 564.726562 162.609375 562.199219 140.074219 559.742188 118.292969 C 558.132812 104.023438 555.738281 82.46875 549.503906 78.863281 C 548.554688 78.304688 546.980469 78.171875 545.832031 78.171875 C 537.269531 78.171875 523.886719 84.011719 510.960938 89.621094 C 490.621094 98.480469 468.25 107.140625 450.929688 102.511719 C 432.722656 97.660156 419.46875 79.648438 406.644531 62.261719 C 397.980469 50.550781 384.859375 32.804688 377.25 32.804688 C 369.640625 32.804688 356.550781 50.550781 347.890625 62.296875 C 335.03125 79.714844 321.777344 97.722656 303.570312 102.578125 C 286.085938 107.335938 263.878906 98.511719 243.539062 89.6875 C 230.613281 84.042969 217.230469 78.207031 208.703125 78.207031 C 207.554688 78.207031 205.976562 78.335938 205.027344 78.894531 C 198.792969 82.503906 196.367188 104.054688 194.792969 118.324219 C 192.332031 140.109375 189.804688 162.644531 176.226562 176.226562 C 162.644531 189.804688 140.105469 192.332031 118.324219 194.792969 C 104.054688 196.367188 82.503906 198.792969 78.894531 204.996094 C 75.484375 210.933594 84.042969 230.550781 89.652344 243.539062 C 98.480469 263.8125 107.597656 284.773438 102.578125 303.605469 C 97.722656 321.777344 79.714844 335.03125 62.296875 347.855469 C 50.550781 356.550781 32.804688 369.640625 32.804688 377.25 C 32.804688 384.859375 50.550781 397.949219 62.296875 406.644531 C 79.683594 419.46875 97.691406 432.722656 102.578125 450.894531 C 107.597656 469.726562 98.480469 490.6875 89.652344 510.960938 C 84.011719 523.949219 75.449219 543.601562 78.894531 549.503906 C 82.46875 555.707031 104.054688 558.132812 118.292969 559.742188 C 140.074219 562.199219 162.644531 564.726562 176.191406 578.308594 C 189.773438 591.890625 192.300781 614.425781 194.757812 636.207031 C 196.367188 650.476562 198.761719 672.03125 204.996094 675.636719 C 205.945312 676.195312 207.519531 676.328125 208.667969 676.328125 C 217.230469 676.328125 230.613281 670.488281 243.539062 664.878906 C 259.746094 657.792969 276.507812 650.511719 292.15625 650.511719 Z M 292.15625 650.511719 " fill-opacity="1" fill-rule="nonzero"/></g><path fill="#ffffff" d="M 278.835938 459.261719 C 273.785156 459.261719 268.863281 456.898438 265.714844 452.699219 L 196.824219 360.847656 L 196.824219 442.859375 C 196.824219 451.914062 189.476562 459.261719 180.425781 459.261719 C 171.371094 459.261719 164.023438 451.914062 164.023438 442.859375 L 164.023438 311.640625 C 164.023438 304.589844 168.546875 298.324219 175.242188 296.09375 C 181.898438 293.828125 189.3125 296.15625 193.546875 301.800781 L 262.433594 393.652344 L 262.433594 311.640625 C 262.433594 302.585938 269.78125 295.238281 278.835938 295.238281 C 287.890625 295.238281 295.238281 302.585938 295.238281 311.640625 L 295.238281 442.859375 C 295.238281 449.910156 290.710938 456.175781 284.019531 458.40625 C 282.3125 459 280.574219 459.261719 278.835938 459.261719 Z M 278.835938 459.261719 " fill-opacity="1" fill-rule="nonzero"/><path fill="#ffffff" d="M 410.054688 459.261719 L 344.445312 459.261719 C 335.390625 459.261719 328.042969 451.914062 328.042969 442.859375 L 328.042969 311.640625 C 328.042969 302.585938 335.390625 295.238281 344.445312 295.238281 L 410.054688 295.238281 C 419.109375 295.238281 426.457031 302.585938 426.457031 311.640625 C 426.457031 320.695312 419.109375 328.042969 410.054688 328.042969 L 360.847656 328.042969 L 360.847656 426.457031 L 410.054688 426.457031 C 419.109375 426.457031 426.457031 433.804688 426.457031 442.859375 C 426.457031 451.914062 419.109375 459.261719 410.054688 459.261719 Z M 410.054688 459.261719 " fill-opacity="1" fill-rule="nonzero"/><path fill="#ffffff" d="M 410.054688 393.652344 L 344.445312 393.652344 C 335.390625 393.652344 328.042969 386.304688 328.042969 377.25 C 328.042969 368.195312 335.390625 360.847656 344.445312 360.847656 L 410.054688 360.847656 C 419.109375 360.847656 426.457031 368.195312 426.457031 377.25 C 426.457031 386.304688 419.109375 393.652344 410.054688 393.652344 Z M 410.054688 393.652344 " fill-opacity="1" fill-rule="nonzero"/><path fill="#ffffff" d="M 574.074219 459.261719 C 567.023438 459.261719 560.757812 454.765625 558.492188 448.042969 L 541.273438 396.308594 L 524.050781 448.042969 C 521.753906 454.929688 516.078125 459.554688 507.84375 459.226562 C 500.5625 458.964844 494.328125 453.882812 492.558594 446.828125 L 459.753906 315.609375 C 457.585938 306.820312 462.902344 297.929688 471.695312 295.730469 C 480.320312 293.5 489.375 298.847656 491.574219 307.671875 L 510.699219 384.238281 L 525.691406 339.261719 C 530.183594 325.878906 552.359375 325.878906 556.820312 339.261719 L 571.8125 384.238281 L 590.9375 307.671875 C 593.101562 298.847656 601.960938 293.535156 610.816406 295.730469 C 619.640625 297.929688 624.957031 306.820312 622.757812 315.609375 L 589.953125 446.828125 C 588.183594 453.914062 581.949219 458.964844 574.667969 459.226562 C 574.503906 459.261719 574.273438 459.261719 574.074219 459.261719 Z M 574.074219 459.261719 " fill-opacity="1" fill-rule="nonzero"/></svg>