<svg xmlns="http://www.w3.org/2000/svg" xmlns:xlink="http://www.w3.org/1999/xlink" width="1024" zoomAndPan="magnify" viewBox="0 0 768 767.999994" height="1024" preserveAspectRatio="xMidYMid meet" version="1.0"><defs><clipPath id="id1"><path d="M 27.710938 38 L 740.210938 38 L 740.210938 712 L 27.710938 712 Z M 27.710938 38 " clip-rule="nonzero"/></clipPath></defs><rect x="-76.8" width="921.6" fill="#ff914d" y="-76.799999" height="921.599993" fill-opacity="1"/><rect x="-76.8" width="921.6" fill="#ffffff" y="-76.799999" height="921.599993" fill-opacity="1"/><rect x="-76.8" width="921.6" fill="#ff914d" y="-76.799999" height="921.599993" fill-opacity="1"/><g clip-path="url(#id1)"><path fill="#ffffff" d="M 380.363281 38.714844 C 341.066406 42.746094 312.421875 49.367188 282.773438 61.03125 C 240.742188 77.734375 204.179688 101.203125 173.089844 131.574219 L 157.257812 146.976562 L 118.394531 118.902344 C 97.09375 103.5 76.65625 89.53125 73.195312 87.945312 C 68.304688 85.640625 64.703125 85.210938 57.078125 85.640625 C 44.695312 86.359375 36.777344 91.253906 31.457031 101.90625 L 27.710938 108.960938 L 27.710938 320.742188 L 31.601562 328.085938 C 38.363281 341.046875 51.320312 348.820312 65.714844 348.820312 C 70.609375 348.820312 97.667969 340.324219 164.453125 317.863281 C 215.121094 300.730469 260.03125 285.183594 264.058594 283.167969 C 284.210938 273.382812 289.25 250.34375 275 233.648438 C 272.265625 230.480469 252.257812 215.222656 230.519531 199.675781 C 191.945312 171.890625 191.078125 171.171875 193.527344 168.4375 C 194.96875 166.851562 203.167969 159.515625 211.804688 152.167969 C 310.691406 66.945312 449.453125 55.855469 559.855469 124.382812 C 605.339844 152.597656 643.917969 194.925781 667.953125 243.015625 C 697.460938 302.183594 706.382812 368.984375 693.425781 433.484375 C 684.214844 478.832031 661.046875 526.917969 631.242188 562.621094 C 557.835938 650.726562 442.25 688.445312 331.847656 660.523438 C 255.285156 641.070312 188.492188 590.101562 148.621094 520.855469 C 130.195312 488.75 120.984375 462.402344 112.492188 417.058594 C 112.0625 414.324219 111.34375 414.175781 104.429688 415.1875 C 100.257812 415.761719 91.046875 417.058594 83.992188 417.921875 L 71.328125 419.652344 L 72.191406 427.71875 C 73.632812 439.664062 80.832031 468.605469 86.734375 485.59375 C 97.8125 518.125 120.992188 559.308594 143.734375 587.375 C 187.921875 641.652344 253.125 683.253906 321.929688 700.820312 C 437.945312 730.476562 561.875 695.355469 645.21875 609.261719 C 653.28125 601.054688 663.355469 589.679688 667.8125 584.066406 C 696.460938 548.070312 718.910156 503.015625 730.136719 458.964844 C 738.199219 427.566406 740.210938 411.296875 740.210938 374.726562 C 740.210938 350.6875 739.492188 338.019531 737.625 325.78125 C 714.308594 177.066406 600.738281 64.195312 451.613281 41.449219 C 436.933594 39.289062 392.027344 37.558594 380.363281 38.714844 Z M 150.632812 193.335938 C 194.101562 224.574219 229.800781 250.492188 229.945312 250.917969 C 229.945312 251.640625 77.085938 303.757812 70.609375 305.339844 C 69.023438 305.769531 68.738281 290.660156 68.738281 220.691406 C 68.738281 170.734375 69.3125 135.75 70.035156 136.039062 C 70.753906 136.179688 107.027344 162.09375 150.632812 193.335938 Z M 150.632812 193.335938 " fill-opacity="1" fill-rule="nonzero"/></g></svg>