<svg xmlns="http://www.w3.org/2000/svg" xmlns:xlink="http://www.w3.org/1999/xlink" width="1024" zoomAndPan="magnify" viewBox="0 0 768 767.999994" height="1024" preserveAspectRatio="xMidYMid meet" version="1.0"><defs><clipPath id="id1"><path d="M 23.027344 0 L 671 0 L 671 767 L 23.027344 767 Z M 23.027344 0 " clip-rule="nonzero"/></clipPath></defs><rect x="-76.8" width="921.6" fill="#ff914d" y="-76.799999" height="921.599993" fill-opacity="1"/><rect x="-76.8" width="921.6" fill="#ffffff" y="-76.799999" height="921.599993" fill-opacity="1"/><rect x="-76.8" width="921.6" fill="#ff914d" y="-76.799999" height="921.599993" fill-opacity="1"/><path fill="#ffffff" d="M 658.9375 306.1875 C 658.894531 312.296875 658.851562 318.039062 658.808594 324.40625 C 693.640625 327.007812 720.238281 342.6875 734.539062 374.648438 C 748.75 406.394531 743.117188 436.546875 721.617188 464.550781 C 726.28125 468.59375 730.734375 472.488281 735.121094 476.292969 C 759.394531 457.324219 767.972656 407.640625 753.71875 370.648438 C 738.96875 332.386719 696.804688 303.414062 658.9375 306.1875 " fill-opacity="1" fill-rule="nonzero"/><path fill="#ffffff" d="M 632.855469 350.882812 C 633.332031 352.667969 633.523438 353.980469 634.019531 355.164062 C 635.867188 359.464844 637.800781 363.699219 639.953125 368.453125 C 654.035156 363.441406 667.476562 363.808594 680.183594 371.230469 C 688.957031 376.347656 695.320312 383.746094 698.976562 393.230469 C 707.015625 414.222656 698.976562 434.570312 676.699219 449.386719 C 679.105469 454.742188 681.535156 460.164062 684.332031 466.402344 C 703.039062 457.195312 715.164062 442.914062 719.359375 422.761719 C 724.863281 396.4375 716.542969 374.410156 695.191406 358.300781 C 676.289062 344.042969 655.175781 342.40625 632.855469 350.882812 " fill-opacity="1" fill-rule="nonzero"/><path fill="#ffffff" d="M 615.957031 314.039062 C 618.859375 320.511719 621.289062 325.933594 623.785156 331.480469 C 628.320312 330.128906 632.597656 329.050781 636.683594 327.460938 C 637.886719 326.988281 639.371094 324.964844 639.242188 323.824219 C 638.769531 319.652344 637.976562 315.457031 636.640625 311.480469 C 636.234375 310.210938 633.609375 308.554688 632.425781 308.835938 C 627.09375 310.148438 621.890625 312.082031 615.957031 314.039062 " fill-opacity="1" fill-rule="nonzero"/><path fill="#ffffff" d="M 693.0625 485.953125 C 695.597656 491.609375 698.027344 497.007812 700.953125 503.542969 C 706.285156 500.382812 711.445312 497.566406 716.242188 494.230469 C 717.078125 493.652344 717.101562 490.46875 716.328125 489.21875 C 713.875 485.304688 710.84375 481.734375 707.703125 477.605469 C 702.824219 480.378906 698.113281 483.070312 693.0625 485.953125 " fill-opacity="1" fill-rule="nonzero"/><g clip-path="url(#id1)"><path fill="#ffffff" d="M 95.402344 726.667969 C 93.121094 735.871094 83.898438 742.777344 72.867188 742.777344 C 60.160156 742.777344 49.816406 733.570312 49.816406 722.257812 L 49.816406 326.988281 C 49.816406 315.675781 60.160156 306.46875 72.867188 306.46875 C 83.898438 306.46875 93.121094 313.371094 95.402344 322.578125 Z M 642.46875 567.507812 L 642.46875 741.398438 L 123.222656 741.398438 L 123.222656 25.597656 L 642.46875 25.597656 L 642.46875 279.691406 C 648.210938 276.035156 656.445312 262.636719 670.292969 272.789062 L 670.292969 24.222656 C 670.292969 11.339844 658.507812 0.863281 644.015625 0.863281 L 121.675781 0.863281 C 107.183594 0.863281 95.402344 11.339844 95.402344 24.222656 L 95.402344 287.433594 C 88.628906 284.378906 80.972656 282.636719 72.867188 282.636719 C 45.386719 282.636719 23.027344 302.53125 23.027344 326.988281 L 23.027344 722.257812 C 23.027344 746.152344 44.398438 765.679688 71.039062 766.5625 L 70.933594 766.585938 L 72.480469 766.585938 C 72.628906 766.585938 72.738281 766.585938 72.867188 766.585938 C 73.105469 766.585938 73.320312 766.585938 73.511719 766.585938 L 150.59375 766.15625 L 644.015625 766.15625 C 658.507812 766.15625 670.292969 755.660156 670.292969 742.777344 L 670.292969 564.753906 C 662.054688 570.476562 651.628906 571.359375 642.46875 567.507812 " fill-opacity="1" fill-rule="nonzero"/></g><path fill="#ffffff" d="M 657.757812 532.105469 C 652.769531 534.257812 648.554688 532.839844 645.652344 528.214844 C 644.445312 526.277344 643.4375 524.171875 642.46875 522.0625 C 642.339844 521.738281 642.167969 521.394531 642.015625 521.074219 C 615.890625 462.808594 589.769531 404.542969 563.664062 346.257812 C 562.480469 343.632812 561.300781 340.925781 560.589844 338.148438 C 559.40625 333.460938 561.214844 329.761719 565.429688 327.503906 C 569.707031 325.246094 573.8125 325.996094 576.953125 329.566406 C 578.671875 331.523438 579.878906 334.042969 580.953125 336.429688 C 594.347656 366.175781 607.65625 395.917969 620.988281 425.664062 C 628.167969 441.644531 635.308594 457.605469 642.46875 473.585938 C 648.554688 487.15625 654.636719 500.726562 660.722656 514.277344 C 661.625 516.320312 662.765625 518.34375 663.195312 520.492188 C 664.269531 525.613281 662.832031 529.933594 657.757812 532.105469 Z M 614.300781 520.363281 C 572.09375 519.394531 530.617188 523.589844 490.539062 537.847656 C 489.097656 538.386719 485.65625 536.988281 485.03125 535.613281 C 472.648438 508.597656 460.476562 481.5 448.566406 454.269531 C 447.921875 452.785156 449.277344 449.28125 450.757812 448.226562 C 455.46875 444.894531 460.800781 442.441406 465.703125 439.324219 C 495.828125 420.09375 521.542969 395.875 544.765625 368.863281 C 546.269531 367.097656 547.945312 365.484375 549.902344 363.398438 C 573.492188 415.988281 596.648438 467.605469 620.0625 519.867188 C 617.675781 520.085938 616 520.386719 614.300781 520.363281 Z M 519.480469 629.816406 C 526.617188 640.59375 534.058594 651.238281 540.484375 662.445312 C 544.957031 670.230469 541.691406 679.113281 534.078125 683.910156 C 527.390625 688.101562 518.445312 686.660156 512.8125 680.402344 C 511.628906 679.089844 510.554688 677.628906 509.566406 676.167969 C 497.007812 657.734375 484.453125 639.28125 471.9375 620.828125 C 462.820312 607.382812 453.769531 593.921875 443.964844 579.359375 C 452.910156 575.359375 461.359375 572.027344 469.378906 567.808594 C 474.839844 564.929688 477.550781 566.5625 480.625 571.273438 C 493.398438 590.910156 506.554688 610.289062 519.480469 629.816406 Z M 416.226562 571.058594 C 407.433594 574.929688 402.464844 573.078125 398.382812 564.347656 C 393.371094 553.636719 388.664062 542.773438 383.824219 531.976562 C 383.847656 531.976562 383.847656 531.976562 383.847656 531.976562 C 378.921875 520.988281 373.828125 510.0625 369.117188 498.964844 C 365.632812 490.769531 367.570312 485.84375 375.652344 482.164062 C 391.671875 474.808594 407.84375 467.777344 423.859375 460.421875 C 427.773438 458.613281 429.839844 459.324219 431.601562 463.304688 C 443.277344 489.609375 455.058594 515.890625 466.949219 542.109375 C 468.734375 546.066406 467.875 548.066406 463.917969 549.808594 C 447.964844 556.753906 432.160156 564.066406 416.226562 571.058594 Z M 345.25 546.625 C 341.574219 535.742188 347.207031 523.871094 357.59375 521.03125 C 363.269531 533.675781 368.945312 546.367188 374.816406 559.445312 C 361.679688 564.777344 349.507812 559.207031 345.25 546.625 Z M 679.539062 509.847656 C 676.460938 502.964844 673.367188 496.082031 670.292969 489.199219 C 661.023438 468.488281 651.757812 447.773438 642.46875 427.0625 C 627.308594 393.253906 612.152344 359.441406 596.972656 325.609375 C 596.519531 324.601562 596.003906 323.609375 595.464844 322.621094 C 588.542969 309.953125 575.425781 304.402344 561.386719 308.1875 C 549.34375 311.414062 540.785156 323.867188 540.679688 337.203125 C 540.65625 340.625 539.390625 344.667969 537.28125 347.3125 C 519.003906 370.238281 498.6875 391.230469 475.269531 408.953125 C 468.261719 414.246094 460.90625 419.082031 453.296875 424.03125 C 452.351562 424.695312 450.824219 425.730469 448.5 427.148438 C 445.234375 429.257812 441.945312 431.386719 438.632812 433.621094 C 438.503906 433.34375 438.394531 433.105469 438.289062 432.847656 C 428.398438 438.054688 412.980469 445.429688 389.457031 455.128906 C 381.933594 458.507812 374.449219 461.949219 366.925781 465.347656 C 352.925781 471.714844 346.863281 482.230469 348.648438 497.523438 C 349.078125 501.136719 348.28125 503.007812 344.972656 504.921875 C 326.929688 515.265625 319.941406 537.570312 328.457031 556.648438 C 337.015625 575.8125 358.367188 585.683594 377.890625 579.144531 C 381.71875 577.875 383.804688 578.457031 386.40625 581.445312 C 395.695312 592.027344 407.367188 595.039062 420.183594 589.769531 C 424.957031 587.789062 427.324219 588.953125 429.988281 592.910156 C 451.554688 624.890625 473.273438 656.808594 494.96875 688.726562 C 500.6875 697.136719 507.847656 702.40625 516.253906 704.46875 C 538.617188 707.265625 550.589844 697.050781 556.871094 687.070312 C 556.976562 686.878906 557.0625 686.660156 557.171875 686.445312 C 563.6875 674.597656 563.601562 662.144531 556.375 650.742188 C 544.421875 631.902344 531.691406 613.578125 519.308594 595.015625 C 511.179688 582.800781 503.09375 570.585938 494.859375 558.152344 C 496.019531 557.3125 496.664062 556.667969 497.417969 556.347656 C 500.320312 555.140625 503.179688 553.851562 506.167969 552.949219 C 544.851562 541.183594 584.476562 538.085938 624.644531 540.28125 C 627.761719 540.453125 631.332031 542.324219 633.738281 544.472656 C 636.425781 546.859375 639.371094 548.691406 642.46875 550 C 651.628906 553.828125 662.054688 552.949219 670.292969 547.226562 C 671.710938 546.238281 673.085938 545.121094 674.355469 543.851562 C 683.34375 534.902344 685.386719 522.945312 679.539062 509.847656 " fill-opacity="1" fill-rule="nonzero"/><path fill="#ffffff" d="M 550.828125 158.539062 L 218.046875 158.539062 C 213.789062 158.539062 210.304688 155.054688 210.304688 150.816406 C 210.304688 146.558594 213.789062 143.074219 218.046875 143.074219 L 550.828125 143.074219 C 555.085938 143.074219 558.570312 146.558594 558.570312 150.816406 C 558.570312 155.054688 555.085938 158.539062 550.828125 158.539062 " fill-opacity="1" fill-rule="nonzero"/><path fill="#ffffff" d="M 481.808594 258.507812 L 218.046875 258.507812 C 213.789062 258.507812 210.304688 255.042969 210.304688 250.785156 C 210.304688 246.527344 213.789062 243.042969 218.046875 243.042969 L 481.808594 243.042969 C 486.042969 243.042969 489.527344 246.527344 489.527344 250.785156 C 489.527344 255.042969 486.042969 258.507812 481.808594 258.507812 " fill-opacity="1" fill-rule="nonzero"/><path fill="#ffffff" d="M 214.972656 343.011719 C 212.414062 343.011719 210.304688 345.804688 210.304688 349.203125 L 210.304688 352.300781 C 210.304688 355.699219 212.414062 358.472656 214.972656 358.472656 L 396.703125 358.472656 C 403.285156 352.839844 409.667969 347.675781 415.667969 343.011719 L 214.972656 343.011719 " fill-opacity="1" fill-rule="nonzero"/><path fill="#ffffff" d="M 210.304688 449.171875 L 210.304688 452.269531 C 210.304688 455.667969 212.414062 458.441406 214.972656 458.441406 L 314.417969 458.441406 C 316.996094 453.195312 319.792969 448.054688 322.78125 443 L 214.972656 443 C 212.414062 443 210.304688 445.773438 210.304688 449.171875 " fill-opacity="1" fill-rule="nonzero"/><path fill="#ffffff" d="M 210.304688 549.140625 L 210.304688 552.238281 C 210.304688 555.636719 212.242188 558.433594 214.585938 558.433594 L 292.421875 558.433594 C 292.894531 558.433594 293.34375 558.304688 293.777344 558.089844 C 292.636719 553.011719 291.796875 547.980469 291.238281 542.96875 L 214.585938 542.96875 C 212.242188 542.96875 210.304688 545.742188 210.304688 549.140625 " fill-opacity="1" fill-rule="nonzero"/><path fill="#ffffff" d="M 210.304688 649.132812 L 210.304688 652.207031 C 210.304688 655.605469 212.777344 658.402344 215.789062 658.402344 L 398.855469 658.402344 C 391.628906 653.238281 384.921875 648.078125 378.707031 642.9375 L 215.789062 642.9375 C 212.777344 642.9375 210.304688 645.710938 210.304688 649.132812 " fill-opacity="1" fill-rule="nonzero"/></svg>