<svg xmlns="http://www.w3.org/2000/svg" xmlns:xlink="http://www.w3.org/1999/xlink" width="1024" zoomAndPan="magnify" viewBox="0 0 768 767.999994" height="1024" preserveAspectRatio="xMidYMid meet" version="1.0"><defs><clipPath id="id1"><path d="M 15.015625 89 L 753.015625 89 L 753.015625 657 L 15.015625 657 Z M 15.015625 89 " clip-rule="nonzero"/></clipPath></defs><rect x="-76.8" width="921.6" fill="#ff914d" y="-76.799999" height="921.599993" fill-opacity="1"/><rect x="-76.8" width="921.6" fill="#ffffff" y="-76.799999" height="921.599993" fill-opacity="1"/><rect x="-76.8" width="921.6" fill="#ff914d" y="-76.799999" height="921.599993" fill-opacity="1"/><path fill="#ffffff" d="M 236.464844 294.480469 L 312.074219 218.886719 C 310.765625 216.726562 309.386719 214.695312 307.945312 212.664062 L 230.503906 290.089844 L 236.464844 294.480469 " fill-opacity="1" fill-rule="nonzero"/><path fill="#ffffff" d="M 223.691406 285.113281 L 302.902344 205.851562 C 301.328125 203.949219 299.757812 202.117188 298.121094 200.347656 L 217.726562 280.722656 L 223.691406 285.113281 " fill-opacity="1" fill-rule="nonzero"/><path fill="#ffffff" d="M 211.699219 252.753906 L 280.234375 184.234375 C 278.203125 182.792969 276.171875 181.351562 274.074219 180.042969 L 211.699219 242.402344 L 211.699219 252.753906 " fill-opacity="1" fill-rule="nonzero"/><path fill="#ffffff" d="M 211.699219 230.546875 L 266.734375 175.585938 C 264.507812 174.34375 262.214844 173.164062 259.855469 172.050781 L 211.699219 220.261719 L 211.699219 230.546875 " fill-opacity="1" fill-rule="nonzero"/><path fill="#ffffff" d="M 211.699219 208.40625 L 251.601562 168.511719 C 249.113281 167.53125 246.554688 166.679688 243.9375 165.828125 L 211.699219 198.054688 L 211.699219 208.40625 " fill-opacity="1" fill-rule="nonzero"/><path fill="#ffffff" d="M 211.699219 186.265625 L 234.632812 163.335938 C 231.75 162.683594 228.867188 162.160156 225.917969 161.699219 L 211.699219 175.914062 L 211.699219 186.265625 " fill-opacity="1" fill-rule="nonzero"/><path fill="#ffffff" d="M 211.699219 274.894531 L 292.289062 194.386719 C 290.453125 192.683594 288.683594 191.046875 286.851562 189.410156 L 211.699219 264.542969 L 211.699219 274.894531 " fill-opacity="1" fill-rule="nonzero"/><path fill="#ffffff" d="M 215.238281 160.519531 C 214.058594 160.457031 212.878906 160.390625 211.699219 160.390625 L 211.699219 164.125 L 215.238281 160.519531 " fill-opacity="1" fill-rule="nonzero"/><path fill="#ffffff" d="M 249.308594 303.78125 L 319.742188 233.363281 C 318.691406 231.003906 317.578125 228.710938 316.398438 226.417969 L 243.347656 299.457031 L 249.308594 303.78125 " fill-opacity="1" fill-rule="nonzero"/><path fill="#ffffff" d="M 274.925781 322.515625 L 329.371094 268.148438 C 328.976562 265.132812 328.519531 262.121094 327.929688 259.171875 L 268.964844 318.195312 L 274.925781 322.515625 " fill-opacity="1" fill-rule="nonzero"/><path fill="#ffffff" d="M 262.085938 313.148438 L 325.636719 249.675781 C 324.851562 246.988281 324.066406 244.367188 323.148438 241.8125 L 256.121094 308.824219 L 262.085938 313.148438 " fill-opacity="1" fill-rule="nonzero"/><path fill="#ffffff" d="M 300.542969 341.25 L 325.769531 316.03125 C 327.011719 311.707031 327.996094 307.320312 328.714844 302.800781 L 294.582031 336.929688 L 300.542969 341.25 " fill-opacity="1" fill-rule="nonzero"/><path fill="#ffffff" d="M 287.765625 331.882812 L 330.09375 289.566406 C 330.222656 287.40625 330.289062 285.308594 330.289062 283.082031 C 330.289062 281.773438 330.222656 280.460938 330.15625 279.152344 L 281.804688 327.5625 L 287.765625 331.882812 " fill-opacity="1" fill-rule="nonzero"/><path fill="#ffffff" d="M 311.09375 348.914062 C 313.976562 344.394531 316.53125 339.746094 318.824219 334.832031 L 307.421875 346.230469 L 311.09375 348.914062 " fill-opacity="1" fill-rule="nonzero"/><g clip-path="url(#id1)"><path fill="#ffffff" d="M 56.488281 106.347656 C 42.726562 106.347656 31.589844 117.484375 31.589844 131.175781 L 31.589844 614.738281 C 31.589844 628.429688 42.726562 639.632812 56.488281 639.632812 L 711.605469 639.632812 C 725.234375 639.632812 736.4375 628.429688 736.4375 614.738281 L 736.4375 131.175781 C 736.4375 117.484375 725.234375 106.347656 711.605469 106.347656 Z M 711.605469 656.203125 L 56.488281 656.203125 C 33.621094 656.203125 15.015625 637.601562 15.015625 614.738281 L 15.015625 131.175781 C 15.015625 108.378906 33.621094 89.773438 56.488281 89.773438 L 711.605469 89.773438 C 734.40625 89.773438 753.015625 108.378906 753.015625 131.175781 L 753.015625 614.738281 C 753.015625 637.601562 734.40625 656.203125 711.605469 656.203125 " fill-opacity="1" fill-rule="nonzero"/></g><path fill="#ffffff" d="M 437.542969 252.882812 L 469.320312 252.882812 L 469.320312 357.039062 L 437.542969 357.039062 L 437.542969 252.882812 " fill-opacity="1" fill-rule="nonzero"/><path fill="#ffffff" d="M 486.878906 261.597656 L 518.71875 261.597656 L 518.71875 357.039062 L 486.878906 357.039062 L 486.878906 261.597656 " fill-opacity="1" fill-rule="nonzero"/><path fill="#ffffff" d="M 536.277344 278.957031 L 568.054688 278.957031 L 568.054688 357.039062 L 536.277344 357.039062 L 536.277344 278.957031 " fill-opacity="1" fill-rule="nonzero"/><path fill="#ffffff" d="M 585.613281 235.523438 L 617.390625 235.523438 L 617.390625 357.039062 L 585.613281 357.039062 L 585.613281 235.523438 " fill-opacity="1" fill-rule="nonzero"/><path fill="#ffffff" d="M 635.015625 235.523438 L 666.792969 235.523438 L 666.792969 357.039062 L 635.015625 357.039062 L 635.015625 235.523438 " fill-opacity="1" fill-rule="nonzero"/><path fill="#ffffff" d="M 220.9375 588.863281 L 664.695312 588.863281 L 665.21875 428.375 L 498.148438 510.453125 L 437.347656 473.640625 L 327.667969 523.488281 L 149.980469 539.144531 L 80.007812 588.863281 L 220.9375 588.863281 " fill-opacity="1" fill-rule="nonzero"/><path fill="#ffffff" d="M 207.179688 405.644531 C 139.433594 405.644531 84.265625 350.554688 84.265625 282.753906 C 84.265625 216.59375 136.945312 162.421875 202.59375 159.996094 L 202.59375 281.574219 L 202.660156 281.574219 L 305.328125 356.644531 C 282.917969 386.386719 247.277344 405.644531 207.179688 405.644531 " fill-opacity="1" fill-rule="nonzero"/></svg>