<svg xmlns="http://www.w3.org/2000/svg" xmlns:xlink="http://www.w3.org/1999/xlink" width="1024" zoomAndPan="magnify" viewBox="0 0 768 767.999994" height="1024" preserveAspectRatio="xMidYMid meet" version="1.0"><defs><clipPath id="id1"><path d="M 0 16 L 756.75 16 L 756.75 520 L 0 520 Z M 0 16 " clip-rule="nonzero"/></clipPath></defs><rect x="-76.8" width="921.6" fill="#ff914d" y="-76.799999" height="921.599993" fill-opacity="1"/><rect x="-76.8" width="921.6" fill="#ffffff" y="-76.799999" height="921.599993" fill-opacity="1"/><rect x="-76.8" width="921.6" fill="#ff914d" y="-76.799999" height="921.599993" fill-opacity="1"/><path fill="#ffffff" d="M 693.789062 499.753906 C 693.789062 438.621094 644.070312 388.886719 582.953125 388.886719 C 521.835938 388.886719 472.113281 438.621094 472.113281 499.753906 C 472.113281 560.890625 521.835938 610.625 582.953125 610.625 C 644.070312 610.625 693.789062 560.890625 693.789062 499.753906 Z M 582.945312 594.851562 C 530.523438 594.851562 487.878906 552.195312 487.878906 499.753906 C 487.878906 447.320312 530.523438 404.664062 582.945312 404.664062 C 635.367188 404.664062 678.011719 447.320312 678.011719 499.753906 C 678.015625 552.191406 635.371094 594.851562 582.945312 594.851562 Z M 582.945312 594.851562 " fill-opacity="1" fill-rule="nonzero"/><path fill="#ffffff" d="M 582.945312 417.074219 C 537.367188 417.074219 500.285156 454.164062 500.285156 499.753906 C 500.285156 545.347656 537.375 582.445312 582.945312 582.445312 C 628.519531 582.445312 665.605469 545.347656 665.605469 499.753906 C 665.605469 454.164062 628.523438 417.074219 582.945312 417.074219 Z M 626.210938 544.628906 L 582.953125 522.074219 L 539.691406 544.628906 L 555.121094 506.59375 L 527.28125 476.242188 L 566.773438 476.242188 L 582.957031 444.5 L 599.140625 476.242188 L 638.636719 476.242188 L 610.796875 506.59375 Z M 626.210938 544.628906 " fill-opacity="1" fill-rule="nonzero"/><path fill="#ffffff" d="M 491.601562 582.21875 C 472.800781 609.347656 457.375 639.625 445.699219 672.566406 C 459.007812 665.90625 478.65625 658.132812 492.5 661.570312 C 505.160156 664.703125 516.035156 678.652344 523.34375 690.789062 C 527.355469 665.125 535.910156 640.792969 548.785156 618.113281 C 526.460938 611.65625 506.785156 599.035156 491.601562 582.21875 Z M 491.601562 582.21875 " fill-opacity="1" fill-rule="nonzero"/><path fill="#ffffff" d="M 582.945312 376.476562 C 642.910156 376.476562 692.941406 419.550781 703.902344 476.378906 L 713.207031 476.378906 L 713.207031 60.183594 L 43.542969 60.183594 L 43.542969 476.378906 L 461.988281 476.378906 C 472.949219 419.550781 522.984375 376.476562 582.945312 376.476562 Z M 184.144531 94.070312 L 569.527344 94.070312 L 569.527344 150.230469 L 184.144531 150.230469 Z M 125.664062 222.40625 L 644.96875 222.40625 C 648.398438 222.40625 651.171875 225.1875 651.171875 228.609375 C 651.171875 232.035156 648.398438 234.816406 644.96875 234.816406 L 125.664062 234.816406 C 122.234375 234.816406 119.460938 232.035156 119.460938 228.609375 C 119.460938 225.1875 122.234375 222.40625 125.664062 222.40625 Z M 312.574219 290.613281 C 312.574219 294.039062 309.800781 296.816406 306.371094 296.816406 L 171.28125 296.816406 C 167.851562 296.816406 165.078125 294.039062 165.078125 290.613281 C 165.078125 287.1875 167.851562 284.410156 171.28125 284.410156 L 306.367188 284.410156 C 309.796875 284.410156 312.574219 287.1875 312.574219 290.613281 Z M 355.28125 403.089844 C 354.054688 406.289062 350.472656 407.871094 347.261719 406.644531 C 334.03125 401.53125 315.085938 402.542969 293.921875 409.484375 C 289.628906 410.882812 284.972656 409.800781 281.765625 406.644531 C 278.625 403.546875 277.496094 399 278.804688 394.78125 C 280.34375 389.886719 281.125 384.183594 278.714844 382.855469 C 275.785156 382.1875 260.265625 386.800781 223.0625 408.894531 C 218.773438 411.445312 213.507812 410.824219 209.921875 407.394531 C 206.34375 403.96875 205.507812 398.734375 207.839844 394.367188 C 218.042969 375.238281 215.667969 370.582031 215.644531 370.546875 C 200.621094 365.773438 155.71875 405.558594 128.589844 435.332031 C 127.371094 436.679688 125.6875 437.363281 124.007812 437.363281 C 122.519531 437.363281 121.023438 436.828125 119.828125 435.742188 C 117.296875 433.433594 117.109375 429.515625 119.425781 426.976562 C 131.222656 414.019531 191.507812 349.839844 219.285156 358.707031 C 223.011719 359.898438 225.742188 362.410156 227.179688 365.960938 C 228.875 370.136719 229.957031 377.6875 221.132812 395.632812 C 272.84375 365.414062 280.828125 369.84375 284.722656 371.996094 C 289.183594 374.46875 295.832031 381.0625 290.894531 397.671875 C 314.179688 389.855469 335.921875 388.972656 351.726562 395.066406 C 354.929688 396.300781 356.523438 399.894531 355.28125 403.089844 Z M 400.765625 296.816406 C 397.335938 296.816406 394.5625 294.039062 394.5625 290.613281 C 394.5625 287.1875 397.335938 284.410156 400.765625 284.410156 L 614.554688 284.410156 C 617.984375 284.410156 620.757812 287.1875 620.757812 290.613281 C 620.757812 294.039062 617.984375 296.816406 614.554688 296.816406 Z M 400.765625 296.816406 " fill-opacity="1" fill-rule="nonzero"/><g clip-path="url(#id1)"><path fill="#ffffff" d="M 726.546875 16.75 L 30.203125 16.75 C 13.554688 16.75 0 30.308594 0 46.964844 L 0 489.597656 C 0 506.257812 13.554688 519.808594 30.203125 519.808594 L 461.480469 519.808594 C 460.402344 513.269531 459.699219 506.597656 459.699219 499.753906 C 459.699219 496.050781 459.9375 492.402344 460.257812 488.785156 L 37.339844 488.785156 C 33.910156 488.785156 31.136719 486.007812 31.136719 482.582031 L 31.136719 53.976562 C 31.136719 50.554688 33.910156 47.773438 37.339844 47.773438 L 719.410156 47.773438 C 722.839844 47.773438 725.613281 50.554688 725.613281 53.976562 L 725.613281 482.582031 C 725.613281 486.007812 722.839844 488.785156 719.410156 488.785156 L 705.636719 488.785156 C 705.960938 492.410156 706.195312 496.050781 706.195312 499.753906 C 706.195312 506.597656 705.496094 513.261719 704.417969 519.808594 L 726.546875 519.808594 C 743.203125 519.808594 756.75 506.257812 756.75 489.597656 L 756.75 46.964844 C 756.75 30.308594 743.195312 16.75 726.546875 16.75 Z M 726.546875 16.75 " fill-opacity="1" fill-rule="nonzero"/></g><path fill="#ffffff" d="M 617.109375 618.113281 C 629.988281 640.785156 638.535156 665.121094 642.554688 690.789062 C 649.863281 678.652344 660.730469 664.699219 673.394531 661.570312 C 687.273438 658.140625 706.898438 665.90625 720.195312 672.566406 C 708.515625 639.613281 693.097656 609.339844 674.296875 582.21875 C 659.109375 599.035156 639.433594 611.65625 617.109375 618.113281 Z M 617.109375 618.113281 " fill-opacity="1" fill-rule="nonzero"/></svg>