<svg xmlns="http://www.w3.org/2000/svg" xmlns:xlink="http://www.w3.org/1999/xlink" width="1024" zoomAndPan="magnify" viewBox="0 0 768 767.999994" height="1024" preserveAspectRatio="xMidYMid meet" version="1.0"><defs><clipPath id="id1"><path d="M 25.246094 9 L 578 9 L 578 754 L 25.246094 754 Z M 25.246094 9 " clip-rule="nonzero"/></clipPath><clipPath id="id2"><path d="M 633 150 L 742.996094 150 L 742.996094 759 L 633 759 Z M 633 150 " clip-rule="nonzero"/></clipPath><clipPath id="id3"><path d="M 645 592 L 742.996094 592 L 742.996094 613 L 645 613 Z M 645 592 " clip-rule="nonzero"/></clipPath></defs><rect x="-76.8" width="921.6" fill="#ffffff" y="-76.799999" height="921.599993" fill-opacity="1"/><rect x="-76.8" width="921.6" fill="#ffffff" y="-76.799999" height="921.599993" fill-opacity="1"/><rect x="-76.8" width="921.6" fill="#ffffff" y="-76.799999" height="921.599993" fill-opacity="1"/><rect x="-76.8" width="921.6" fill="#ffffff" y="-76.799999" height="921.599993" fill-opacity="1"/><g clip-path="url(#id1)"><path fill="#0c2359" d="M 577.65625 177.195312 C 577.65625 172.34375 573.71875 168.410156 568.867188 168.410156 C 564.015625 168.410156 560.082031 172.34375 560.082031 177.195312 L 560.082031 688.175781 C 560.082031 701.425781 554.652344 713.476562 545.914062 722.214844 C 537.171875 730.957031 525.121094 736.382812 511.871094 736.382812 L 91.253906 736.382812 C 78.003906 736.382812 65.953125 730.957031 57.210938 722.214844 C 48.46875 713.476562 43.042969 701.421875 43.042969 688.175781 L 43.042969 75 C 43.042969 61.753906 48.46875 49.699219 57.210938 40.960938 C 65.953125 32.21875 78.003906 26.792969 91.253906 26.792969 L 409.664062 26.792969 C 414.515625 26.792969 418.449219 22.859375 418.449219 18.007812 C 418.449219 13.15625 414.515625 9.222656 409.664062 9.222656 L 91.253906 9.222656 C 73.152344 9.222656 56.703125 16.621094 44.785156 28.535156 C 32.867188 40.449219 25.46875 56.902344 25.46875 75 L 25.46875 688.175781 C 25.46875 706.273438 32.867188 722.722656 44.785156 734.640625 C 56.703125 746.554688 73.152344 753.953125 91.253906 753.953125 L 511.871094 753.953125 C 529.972656 753.953125 546.421875 746.558594 558.339844 734.640625 C 570.257812 722.722656 577.65625 706.277344 577.65625 688.175781 Z M 577.65625 177.195312 " fill-opacity="1" fill-rule="nonzero"/></g><path fill="#0c2359" d="M 418.453125 168.410156 L 547.65625 168.410156 L 418.453125 39.21875 Z M 568.867188 185.984375 L 409.664062 185.984375 C 404.8125 185.984375 400.878906 182.046875 400.878906 177.195312 L 400.878906 18.007812 C 400.878906 15.757812 401.738281 13.507812 403.453125 11.792969 C 406.882812 8.363281 412.449219 8.363281 415.878906 11.792969 L 575.082031 170.984375 C 576.671875 172.574219 577.65625 174.769531 577.65625 177.195312 C 577.65625 182.046875 573.71875 185.984375 568.867188 185.984375 Z M 568.867188 185.984375 " fill-opacity="1" fill-rule="nonzero"/><path fill="#0c2359" d="M 130.535156 45.464844 L 334.941406 45.464844 C 363.558594 45.464844 386.972656 68.875 386.972656 97.488281 L 386.972656 166.277344 C 386.972656 194.894531 363.554688 218.296875 334.941406 218.296875 L 130.535156 218.296875 C 101.898438 218.296875 78.507812 194.910156 78.507812 166.277344 L 78.507812 97.488281 C 78.507812 68.855469 101.898438 45.464844 130.535156 45.464844 Z M 334.941406 63.039062 L 130.535156 63.039062 C 111.601562 63.039062 96.078125 78.558594 96.078125 97.488281 L 96.078125 166.277344 C 96.078125 185.207031 111.601562 200.726562 130.535156 200.726562 L 334.941406 200.726562 C 353.882812 200.726562 369.398438 185.230469 369.398438 166.277344 L 369.398438 97.488281 C 369.398438 78.535156 353.898438 63.039062 334.941406 63.039062 Z M 334.941406 63.039062 " fill-opacity="1" fill-rule="nonzero"/><path fill="#0c2359" d="M 87.292969 261.648438 L 525.597656 261.648438 C 530.449219 261.648438 534.382812 265.585938 534.382812 270.433594 L 534.382812 309.742188 C 534.382812 314.59375 530.449219 318.527344 525.597656 318.527344 L 87.292969 318.527344 C 82.441406 318.527344 78.507812 314.59375 78.507812 309.742188 L 78.507812 270.433594 C 78.507812 265.585938 82.441406 261.648438 87.292969 261.648438 Z M 516.808594 279.222656 L 96.082031 279.222656 L 96.082031 300.957031 L 516.808594 300.957031 Z M 516.808594 279.222656 " fill-opacity="1" fill-rule="nonzero"/><path fill="#0c2359" d="M 87.292969 332.398438 L 525.597656 332.398438 C 530.449219 332.398438 534.382812 336.332031 534.382812 341.183594 L 534.382812 380.492188 C 534.382812 385.34375 530.449219 389.277344 525.597656 389.277344 L 87.292969 389.277344 C 82.441406 389.277344 78.507812 385.34375 78.507812 380.492188 L 78.507812 341.183594 C 78.507812 336.332031 82.441406 332.398438 87.292969 332.398438 Z M 516.808594 349.972656 L 96.082031 349.972656 L 96.082031 371.703125 L 516.808594 371.703125 Z M 516.808594 349.972656 " fill-opacity="1" fill-rule="nonzero"/><path fill="#0c2359" d="M 87.292969 403.148438 L 525.597656 403.148438 C 530.449219 403.148438 534.382812 407.085938 534.382812 411.9375 L 534.382812 451.242188 C 534.382812 456.09375 530.449219 460.03125 525.597656 460.03125 L 87.292969 460.03125 C 82.441406 460.03125 78.507812 456.09375 78.507812 451.242188 L 78.507812 411.9375 C 78.507812 407.085938 82.441406 403.148438 87.292969 403.148438 Z M 516.808594 420.722656 L 96.082031 420.722656 L 96.082031 442.457031 L 516.808594 442.457031 Z M 516.808594 420.722656 " fill-opacity="1" fill-rule="nonzero"/><path fill="#0c2359" d="M 93.191406 497.484375 C 88.335938 497.484375 84.402344 501.421875 84.402344 506.273438 C 84.402344 511.125 88.335938 515.058594 93.191406 515.058594 L 531.492188 515.058594 C 536.34375 515.058594 540.277344 511.125 540.277344 506.273438 C 540.277344 501.421875 536.34375 497.484375 531.492188 497.484375 Z M 93.191406 497.484375 " fill-opacity="1" fill-rule="nonzero"/><path fill="#0c2359" d="M 93.191406 570.203125 C 88.335938 570.203125 84.402344 574.136719 84.402344 578.988281 C 84.402344 583.839844 88.335938 587.773438 93.191406 587.773438 L 531.492188 587.773438 C 536.34375 587.773438 540.277344 583.839844 540.277344 578.988281 C 540.277344 574.136719 536.34375 570.203125 531.492188 570.203125 Z M 93.191406 570.203125 " fill-opacity="1" fill-rule="nonzero"/><path fill="#0c2359" d="M 93.191406 642.921875 C 88.335938 642.921875 84.402344 646.855469 84.402344 651.707031 C 84.402344 656.558594 88.335938 660.492188 93.191406 660.492188 L 531.492188 660.492188 C 536.34375 660.492188 540.277344 656.558594 540.277344 651.707031 C 540.277344 646.855469 536.34375 642.921875 531.492188 642.921875 Z M 93.191406 642.921875 " fill-opacity="1" fill-rule="nonzero"/><path fill="#0c2359" d="M 723.65625 229.261719 C 728.492188 229.132812 732.300781 225.101562 732.167969 220.269531 C 732.039062 215.4375 728.007812 211.628906 723.175781 211.757812 L 643.789062 213.980469 C 638.957031 214.113281 635.148438 218.140625 635.277344 222.972656 C 635.410156 227.804688 639.4375 231.617188 644.269531 231.484375 Z M 723.65625 229.261719 " fill-opacity="1" fill-rule="nonzero"/><g clip-path="url(#id2)"><path fill="#0c2359" d="M 689.921875 751.976562 L 646.410156 609.269531 L 646.375 609.28125 C 646.066406 608.253906 645.949219 607.222656 646.007812 606.210938 L 635.125 217.464844 L 633.578125 162.222656 L 633.546875 162.222656 C 633.414062 157.375 637.234375 153.332031 642.085938 153.195312 C 642.332031 153.1875 642.578125 153.191406 642.820312 153.207031 L 721.472656 151.007812 L 721.46875 150.976562 C 726.320312 150.839844 730.363281 154.664062 730.5 159.511719 C 730.503906 159.757812 730.503906 160.003906 730.488281 160.25 L 732.09375 217.515625 L 742.882812 602.878906 L 742.914062 602.875 C 742.941406 603.929688 742.78125 604.945312 742.46875 605.886719 L 707.039062 752.238281 L 707.066406 752.246094 C 705.925781 756.960938 701.171875 759.855469 696.457031 758.71875 C 693.054688 757.894531 690.597656 755.1875 689.921875 751.976562 Z M 663.5 605.308594 L 697.550781 716.980469 L 725.34375 602.191406 L 714.585938 217.996094 L 713.207031 168.753906 L 651.328125 170.484375 L 652.628906 216.984375 L 663.5 605.304688 Z M 663.5 605.308594 " fill-opacity="1" fill-rule="nonzero"/></g><g clip-path="url(#id3)"><path fill="#0c2359" d="M 654.460938 595.199219 C 649.628906 595.328125 645.820312 599.359375 645.949219 604.191406 C 646.082031 609.023438 650.109375 612.832031 654.945312 612.703125 L 734.207031 610.480469 C 739.039062 610.351562 742.847656 606.324219 742.71875 601.492188 C 742.585938 596.660156 738.558594 592.847656 733.722656 592.980469 Z M 654.460938 595.199219 " fill-opacity="1" fill-rule="nonzero"/></g><path fill="#0c2359" d="M 721.390625 665.472656 C 726.222656 665.339844 730.035156 661.3125 729.902344 656.480469 C 729.769531 651.648438 725.742188 647.835938 720.910156 647.96875 L 670.21875 649.386719 C 665.382812 649.515625 661.574219 653.546875 661.707031 658.378906 C 661.835938 663.210938 665.867188 667.019531 670.699219 666.890625 Z M 721.390625 665.472656 " fill-opacity="1" fill-rule="nonzero"/><path fill="#0c2359" d="M 638.390625 112.492188 L 712.75 112.492188 L 712.75 61.523438 C 712.75 59.28125 711.847656 57.257812 710.398438 55.808594 L 710.363281 55.808594 C 708.890625 54.335938 706.863281 53.421875 704.648438 53.421875 L 655.277344 53.421875 C 653.054688 53.421875 651.03125 54.324219 649.5625 55.773438 L 649.527344 55.808594 C 648.078125 57.277344 647.175781 59.300781 647.175781 61.523438 L 647.175781 84.90625 L 629.601562 84.90625 L 629.601562 61.523438 C 629.601562 54.476562 632.492188 48.066406 637.136719 43.417969 L 637.171875 43.382812 C 641.820312 38.738281 648.234375 35.851562 655.277344 35.851562 L 704.648438 35.851562 C 711.71875 35.851562 718.140625 38.738281 722.789062 43.382812 L 722.769531 43.402344 C 727.429688 48.066406 730.324219 54.484375 730.324219 61.523438 L 730.324219 130.0625 L 638.390625 130.0625 Z M 638.390625 112.492188 " fill-opacity="1" fill-rule="nonzero"/></svg>