<svg xmlns="http://www.w3.org/2000/svg" xmlns:xlink="http://www.w3.org/1999/xlink" width="1024" zoomAndPan="magnify" viewBox="0 0 768 767.999994" height="1024" preserveAspectRatio="xMidYMid meet" version="1.0"><defs><clipPath id="id1"><path d="M 592.074219 553 L 746.261719 553 L 746.261719 707.371094 L 592.074219 707.371094 Z M 592.074219 553 " clip-rule="nonzero"/></clipPath><clipPath id="id2"><path d="M 283 291.238281 L 598.914062 291.238281 L 598.914062 715.238281 L 283 715.238281 Z M 283 291.238281 " clip-rule="nonzero"/></clipPath><clipPath id="id3"><path d="M 21.324219 53.058594 L 494 53.058594 L 494 490 L 21.324219 490 Z M 21.324219 53.058594 " clip-rule="nonzero"/></clipPath></defs><rect x="-76.8" width="921.6" fill="#ffffff" y="-76.799999" height="921.599993" fill-opacity="1"/><rect x="-76.8" width="921.6" fill="#ffffff" y="-76.799999" height="921.599993" fill-opacity="1"/><rect x="-76.8" width="921.6" fill="#ffffff" y="-76.799999" height="921.599993" fill-opacity="1"/><path fill="#0c2359" d="M 512.492188 394.003906 C 491.300781 394.003906 471.378906 402.261719 456.390625 417.253906 C 425.457031 448.207031 425.457031 498.578125 456.390625 529.527344 C 471.378906 544.523438 491.300781 552.78125 512.492188 552.78125 C 533.683594 552.78125 553.601562 544.523438 568.585938 529.527344 C 599.519531 498.578125 599.519531 448.207031 568.585938 417.253906 C 553.601562 402.261719 533.683594 394.003906 512.492188 394.003906 Z M 512.492188 566.46875 C 487.644531 566.46875 464.289062 556.789062 446.71875 539.210938 C 410.453125 502.917969 410.453125 443.867188 446.71875 407.574219 C 464.289062 389.992188 487.644531 380.316406 512.492188 380.316406 C 537.332031 380.316406 560.695312 389.992188 578.257812 407.574219 C 614.523438 443.867188 614.523438 502.917969 578.257812 539.210938 C 560.695312 556.789062 537.332031 566.46875 512.492188 566.46875 " fill-opacity="1" fill-rule="nonzero"/><path fill="#0c2359" d="M 602.441406 573.089844 L 568.585938 539.210938 L 578.257812 529.527344 L 612.113281 563.40625 L 602.441406 573.089844 " fill-opacity="1" fill-rule="nonzero"/><g clip-path="url(#id1)"><path fill="#0c2359" d="M 625.523438 567.425781 C 620.523438 567.425781 615.820312 569.371094 612.289062 572.910156 L 611.945312 573.25 C 604.863281 580.34375 604.59375 591.695312 611.332031 599.105469 L 690.09375 685.742188 C 694.664062 690.765625 701.179688 693.648438 707.972656 693.648438 C 714.421875 693.648438 720.488281 691.128906 725.050781 686.5625 L 725.515625 686.105469 C 730.234375 681.382812 732.746094 675.105469 732.585938 668.433594 C 732.429688 661.757812 729.625 655.609375 724.691406 651.117188 L 638.117188 572.300781 C 634.660156 569.15625 630.1875 567.425781 625.523438 567.425781 Z M 707.972656 707.335938 C 697.332031 707.335938 687.128906 702.820312 679.972656 694.953125 L 601.210938 608.320312 C 589.554688 595.492188 590.019531 575.84375 602.269531 563.582031 L 602.605469 563.246094 C 608.734375 557.109375 616.875 553.738281 625.523438 553.738281 C 633.605469 553.738281 641.347656 556.730469 647.320312 562.175781 L 733.894531 640.996094 C 741.621094 648.027344 746.011719 657.65625 746.261719 668.105469 C 746.507812 678.558594 742.574219 688.386719 735.1875 695.78125 L 734.722656 696.242188 C 727.578125 703.394531 718.078125 707.335938 707.972656 707.335938 " fill-opacity="1" fill-rule="nonzero"/></g><g clip-path="url(#id2)"><path fill="#0c2359" d="M 587.929688 397.902344 C 591.761719 401.730469 595.25 405.808594 598.378906 410.066406 L 598.378906 291.9375 L 283.761719 291.9375 L 283.761719 715.238281 L 598.378906 715.238281 L 598.378906 625.554688 L 591.09375 617.53125 C 588.574219 614.753906 586.4375 611.742188 584.703125 608.550781 L 584.703125 701.550781 L 297.441406 701.550781 L 297.441406 305.628906 L 584.703125 305.628906 L 584.703125 394.804688 C 585.796875 395.804688 586.875 396.84375 587.929688 397.902344 " fill-opacity="1" fill-rule="nonzero"/></g><path fill="#0c2359" d="M 446.53125 389.453125 C 443.234375 392.050781 440.0625 394.875 437.054688 397.902344 C 435.355469 399.597656 433.714844 401.351562 432.167969 403.140625 L 341.214844 403.140625 L 341.214844 389.453125 L 446.53125 389.453125 " fill-opacity="1" fill-rule="nonzero"/><path fill="#0c2359" d="M 341.214844 440.101562 L 411.144531 440.101562 C 409.664062 444.59375 408.503906 449.164062 407.65625 453.789062 L 341.214844 453.789062 L 341.214844 440.101562 " fill-opacity="1" fill-rule="nonzero"/><path fill="#0c2359" d="M 407.257812 490.75 C 408.011719 495.363281 409.066406 499.933594 410.433594 504.4375 L 341.214844 504.4375 L 341.214844 490.75 L 407.257812 490.75 " fill-opacity="1" fill-rule="nonzero"/><path fill="#0c2359" d="M 443.796875 555.085938 L 341.214844 555.085938 L 341.214844 541.394531 L 430.269531 541.394531 C 432.371094 543.984375 434.644531 546.476562 437.054688 548.882812 C 439.226562 551.058594 441.46875 553.128906 443.796875 555.085938 " fill-opacity="1" fill-rule="nonzero"/><path fill="#0c2359" d="M 540.929688 605.730469 L 341.214844 605.730469 L 341.214844 592.042969 L 540.929688 592.042969 L 540.929688 605.730469 " fill-opacity="1" fill-rule="nonzero"/><g clip-path="url(#id3)"><path fill="#0c2359" d="M 212.085938 53.058594 L 21.660156 431.476562 L 136.539062 489.363281 L 138.535156 475.058594 L 40.03125 425.414062 L 218.148438 71.441406 L 474.722656 200.730469 L 462.835938 224.339844 L 477.144531 226.339844 L 493.078125 194.664062 L 212.085938 53.058594 " fill-opacity="1" fill-rule="nonzero"/></g><path fill="#0c2359" d="M 470.648438 239.25 L 456.339844 237.25 L 190.761719 200.101562 L 151.445312 481.5625 L 149.449219 495.867188 L 132.144531 619.71875 L 270.085938 639.007812 L 270.085938 625.183594 L 147.589844 608.058594 L 162.351562 502.382812 L 164.34375 488.0625 L 202.417969 215.554688 L 449.839844 250.15625 L 464.148438 252.15625 L 486.914062 255.347656 L 483.710938 278.25 L 497.515625 278.25 L 502.339844 243.6875 L 470.648438 239.25 " fill-opacity="1" fill-rule="nonzero"/></svg>