<svg width="25" height="22" viewBox="0 0 25 22" fill="none" xmlns="http://www.w3.org/2000/svg">
<path d="M18.0139 21.29L15.4334 12.4431H16.1028L20.0003 21.2875H18.0139V21.29ZM20.0148 12.4505V8.94907H17.2039C16.7334 8.99386 16.6388 8.61062 16.8401 8.29457L18.6348 6.13447L18.5839 6.08221H17.6234C17.2742 6.13447 17.1457 5.74874 17.3567 5.47499L19.2896 3.14318H18.7245C18.3705 3.15313 18.2831 2.81966 18.5111 2.50361L20.2719 0.355955C20.3932 0.209128 20.5217 -0.00489057 20.7303 8.66187e-05C20.9098 0.0050638 21.0189 0.179265 21.1256 0.308672L23.0004 2.55089C23.2041 2.84953 23.0295 3.16558 22.6754 3.16558H22.1685L24.0894 5.47499C24.3198 5.70892 24.2009 6.08221 23.9366 6.13447H22.8209L24.4944 8.15023L24.6787 8.37171C24.8194 8.53596 24.7491 8.91174 24.4459 8.94907H21.4288V12.453H24.8339V14.2448H18.3316L17.604 12.453H20.0148V12.4505ZM4.03007 11.2545V12.1404H3.67597V11.8592H3.75601V11.2545H4.03007ZM1.97824 10.2018C1.85698 10.2367 1.73814 10.2591 1.62172 10.264C1.34766 10.279 1.09057 10.2168 0.872295 10.0849C0.654016 9.95296 0.476967 9.75387 0.360552 9.49506C0.185928 9.10684 0.154399 8.58672 0.336299 7.97204C0.0573862 7.55147 -0.0347761 7.12841 0.011305 6.74516C0.0525356 6.42165 0.193204 6.13048 0.411484 5.89158C0.627338 5.65765 0.915951 5.47598 1.2555 5.37146C1.79634 5.20472 2.46573 5.23459 3.1618 5.55313C3.23456 5.4934 3.30732 5.44114 3.37766 5.39137C3.79481 5.11265 4.22409 4.98573 4.6558 5.05541C5.08266 5.1226 5.50224 5.38141 5.89757 5.86918C5.98003 5.96872 6.05764 6.07822 6.13525 6.19518C6.60576 6.18274 6.99867 6.30717 7.27515 6.51372C7.4619 6.65308 7.5953 6.83226 7.66563 7.03135C7.73596 7.23293 7.74324 7.4569 7.67048 7.68585C7.57589 7.98946 7.34306 8.30053 6.94773 8.58175C6.91378 8.95255 6.82162 9.27357 6.68095 9.52243C6.54998 9.75636 6.37778 9.93056 6.17406 10.0276C5.9679 10.1247 5.73265 10.1421 5.48526 10.06C5.41493 10.0376 5.34217 10.0052 5.26941 9.9654C5.21605 10.0948 5.16997 10.2068 5.12631 10.3113C4.76979 11.1599 4.64125 11.466 4.60002 12.449H7.8257L7.09568 14.2408H0.680695V12.449H2.83196C2.81983 11.5133 2.7398 11.3914 2.30809 10.7244C2.21593 10.5801 2.10921 10.4133 1.97824 10.2018ZM2.24018 10.1023C2.35174 10.279 2.45118 10.4333 2.53607 10.5652C3.01143 11.2993 3.09389 11.4262 3.10602 12.4465H4.32353C4.36719 11.4038 4.49816 11.0878 4.87166 10.1993C4.92501 10.0699 4.9808 9.94052 5.03415 9.81111C5.00262 9.78622 4.97109 9.76134 4.94199 9.73396C4.88136 9.79867 4.82315 9.8559 4.76252 9.90568C4.4836 10.1421 4.19984 10.2516 3.91365 10.2416C3.62989 10.2317 3.35098 10.1023 3.08177 9.86088C3.01386 9.79867 2.94595 9.73147 2.87804 9.65682C2.67431 9.85342 2.45603 10.0027 2.24018 10.1023ZM3.06479 10.162L3.62261 11.1077L3.38736 11.252L2.82953 10.3063L3.06479 10.162ZM7.0787 21.286L9.65925 12.4416H8.98986L5.08994 21.286H7.0787ZM8.51358 21.2875L10.4736 12.4455H11.2837L10.1313 21.2875H8.51358ZM11.863 21.2875L12.0816 12.4455H12.8916L13.4806 21.2875H11.863ZM14.8998 21.2875L13.7866 12.4455H14.5845L16.6557 21.2875H14.8998ZM0.680695 18.5909H5.1724L3.98156 21.286H0.680695V18.5909ZM20.2452 18.5949H24.8339V21.29H21.4312L20.2452 18.5949ZM0.680695 15.4975H6.53785L5.7278 17.3291H0.680695V15.4975ZM18.887 15.5015H24.8339V17.3331H19.6923L18.887 15.5015Z" fill="white"/>
</svg>
