<svg width="23" height="22" viewBox="0 0 23 22" fill="none" xmlns="http://www.w3.org/2000/svg">
<path d="M20.9632 0H1.39755C1.0269 0 0.671424 0.147242 0.409333 0.409333C0.147241 0.671424 0 1.0269 0 1.39755V16.7706C0 17.1412 0.147241 17.4967 0.409333 17.7588C0.671424 18.0209 1.0269 18.1681 1.39755 18.1681H11.8792L12.2775 17.679L12.9273 16.8824L12.8644 16.7706H1.39755V1.39755H20.9632V8.77661C21.4941 9.12026 21.966 9.54735 22.3608 10.0414V1.39755C22.3608 1.0269 22.2135 0.671424 21.9515 0.409333C21.6894 0.147242 21.3339 0 20.9632 0Z" fill="white"/>
<path d="M3.49414 4.19263H15.3733V5.31067H3.49414V4.19263Z" fill="white"/>
<path d="M3.49414 6.98761H11.1807V8.10565H3.49414V6.98761Z" fill="white"/>
<path d="M3.49414 9.78296H10.4819V10.901H3.49414V9.78296Z" fill="white"/>
<path d="M3.49414 12.5779H10.4819V13.696H3.49414V12.5779Z" fill="white"/>
<path d="M17.7896 9.24483C16.8954 9.23773 16.0198 9.50055 15.2773 9.99893C14.5349 10.4973 13.96 11.2081 13.6279 12.0384C13.2958 12.8686 13.2219 13.7798 13.4158 14.6527C13.6098 15.5257 14.0625 16.3198 14.7149 16.9314L13.3593 18.5875L13.9882 21.11L16.5457 17.9935C17.3553 18.2329 18.2168 18.2329 19.0264 17.9935L21.5839 21.11L22.2128 18.5875L20.8572 16.9314C21.5096 16.3198 21.9624 15.5257 22.1563 14.6527C22.3502 13.7798 22.2763 12.8686 21.9442 12.0384C21.6121 11.2081 21.0372 10.4973 20.2948 9.99893C19.5523 9.50055 18.6768 9.23773 17.7826 9.24483H17.7896ZM17.7896 16.7077C17.1957 16.6995 16.6176 16.5158 16.1279 16.1799C15.6382 15.844 15.2587 15.3708 15.0372 14.8198C14.8156 14.2688 14.7619 13.6646 14.8828 13.0832C15.0037 12.5018 15.2938 11.9691 15.7166 11.552C16.1395 11.135 16.6761 10.8523 17.2592 10.7395C17.8422 10.6266 18.4456 10.6887 18.9935 10.9178C19.5414 11.1469 20.0093 11.5329 20.3384 12.0272C20.6675 12.5216 20.8431 13.1022 20.8432 13.696C20.8358 14.4998 20.5104 15.2679 19.9381 15.8323C19.3659 16.3967 18.5933 16.7115 17.7896 16.7077Z" fill="white"/>
</svg>
