<svg width="21" height="21" viewBox="0 0 21 21" fill="none" xmlns="http://www.w3.org/2000/svg">
<path d="M19.9282 17.2499H18.4282V15.7499H19.1782V12.7499H16.1782V13.4999H14.6782V11.9999C14.6782 11.801 14.7572 11.6102 14.8979 11.4695C15.0385 11.3289 15.2293 11.2499 15.4282 11.2499H19.9282C20.1271 11.2499 20.3179 11.3289 20.4585 11.4695C20.5992 11.6102 20.6782 11.801 20.6782 11.9999V16.4999C20.6782 16.6988 20.5992 16.8895 20.4585 17.0302C20.3179 17.1709 20.1271 17.2499 19.9282 17.2499Z" fill="white"/>
<path d="M16.1777 21H11.6777C11.4788 21 11.2881 20.921 11.1474 20.7803C11.0068 20.6397 10.9277 20.4489 10.9277 20.25V15.75C10.9277 15.5511 11.0068 15.3603 11.1474 15.2197C11.2881 15.079 11.4788 15 11.6777 15H16.1777C16.3766 15 16.5674 15.079 16.7081 15.2197C16.8487 15.3603 16.9277 15.5511 16.9277 15.75V20.25C16.9277 20.4489 16.8487 20.6397 16.7081 20.7803C16.5674 20.921 16.3766 21 16.1777 21ZM12.4277 19.5H15.4277V16.5H12.4277V19.5Z" fill="white"/>
<path d="M9.42772 13.3933C8.88581 13.2521 8.39435 12.9617 8.00915 12.5552C7.62396 12.1487 7.36047 11.6423 7.24859 11.0936C7.13672 10.5449 7.18095 9.97575 7.37627 9.4509C7.57158 8.92604 7.91015 8.46646 8.35352 8.12435C8.7969 7.78224 9.32732 7.57131 9.88455 7.5155C10.4418 7.4597 11.0035 7.56126 11.5059 7.80864C12.0083 8.05603 12.4313 8.43934 12.7268 8.91504C13.0223 9.39074 13.1785 9.93977 13.1777 10.4998H14.6777C14.6786 9.64165 14.4341 8.80115 13.973 8.07739C13.5119 7.35364 12.8535 6.77682 12.0754 6.41494C11.2973 6.05305 10.4319 5.92121 9.58133 6.03494C8.73076 6.14867 7.93044 6.50324 7.27474 7.05684C6.61904 7.61043 6.1353 8.33998 5.88057 9.15944C5.62583 9.97891 5.61072 10.8541 5.83702 11.6819C6.06331 12.5097 6.52158 13.2555 7.15778 13.8314C7.79398 14.4073 8.58158 14.7893 9.42772 14.9323V13.3933Z" fill="white"/>
<path d="M19.8461 8.66248L18.1136 10.185L17.0486 9.11998L18.8561 7.52998L17.0861 4.46999L14.5061 5.33999C13.9018 4.83694 13.2172 4.43891 12.4811 4.16249L11.9486 1.5H8.40862L7.87612 4.16249C7.13407 4.43118 6.44582 4.82991 5.84362 5.33999L3.27113 4.46999L1.50113 7.52998L3.54113 9.32248C3.40237 10.0988 3.40237 10.8936 3.54113 11.67L1.50113 13.47L3.27113 16.53L5.85112 15.66C6.45548 16.163 7.13999 16.561 7.87612 16.8375L8.40862 19.5H9.42862V21H8.40862C8.06177 20.9997 7.72574 20.8792 7.45772 20.659C7.1897 20.4389 7.00626 20.1327 6.93862 19.7925L6.55612 17.9025C6.21657 17.7369 5.88835 17.5489 5.57362 17.34L3.75113 17.955C3.59615 18.0054 3.4341 18.0307 3.27113 18.03C3.00767 18.0318 2.74851 17.9632 2.52041 17.8314C2.29231 17.6995 2.10355 17.5092 1.97363 17.28L0.203635 14.22C0.0285759 13.9192 -0.0364754 13.567 0.0196226 13.2236C0.0757207 12.8801 0.249478 12.5669 0.511135 12.3375L1.95113 11.0775C1.93613 10.8825 1.92863 10.695 1.92863 10.5C1.92863 10.305 1.94363 10.1175 1.95863 9.92998L0.511135 8.66248C0.249478 8.43308 0.0757207 8.11984 0.0196226 7.77641C-0.0364754 7.43298 0.0285759 7.08073 0.203635 6.77999L1.97363 3.71999C2.10355 3.49079 2.29231 3.30044 2.52041 3.16859C2.74851 3.03674 3.00767 2.96818 3.27113 2.96999C3.4341 2.96924 3.59615 2.99456 3.75113 3.04499L5.56612 3.65999C5.88342 3.45097 6.21414 3.26306 6.55612 3.09749L6.93862 1.2075C7.00626 0.867307 7.1897 0.561068 7.45772 0.34091C7.72574 0.120751 8.06177 0.000278626 8.40862 0H11.9486C12.2955 0.000278626 12.6315 0.120751 12.8995 0.34091C13.1675 0.561068 13.351 0.867307 13.4186 1.2075L13.8011 3.09749C14.1407 3.2631 14.4689 3.45102 14.7836 3.65999L16.6061 3.04499C16.7611 2.99456 16.9231 2.96924 17.0861 2.96999C17.3496 2.96818 17.6087 3.03674 17.8368 3.16859C18.0649 3.30044 18.2537 3.49079 18.3836 3.71999L20.1536 6.77999C20.3287 7.08073 20.3937 7.43298 20.3376 7.77641C20.2815 8.11984 20.1078 8.43308 19.8461 8.66248Z" fill="white"/>
</svg>
