<svg width="70" height="72" viewBox="0 0 70 72" fill="none" xmlns="http://www.w3.org/2000/svg">
<path fill-rule="evenodd" clip-rule="evenodd" d="M47.0959 0.000347842C48.0587 -0.0194793 48.9232 0.810938 48.5542 1.81841C48.2201 2.73054 46.1274 4.16372 45.4463 5.03799V5.07584H59.6815C61.2711 5.07584 62.7662 4.98154 64.0323 5.15519C64.8873 5.27246 65.6383 5.51189 66.243 5.98489C66.8577 6.46569 67.2005 7.26586 67.3854 8.23634C67.4348 8.49552 67.5103 9.20458 67.5103 9.20458L67.5225 20.1141C67.5225 20.1141 67.5156 20.2212 67.5122 20.2603C67.4682 20.794 67.3949 21.1969 67.2791 21.3629C66.6895 22.2058 65.1379 21.9364 64.9883 21.027C64.9754 20.6862 64.9883 19.7152 64.9883 19.7152L65.0232 11.9149C65.0232 11.9149 64.926 10.2722 64.9287 9.61956C64.931 9.00949 64.7039 8.4736 64.4947 8.1712C64.2309 7.78958 63.6625 7.67601 62.8102 7.65221C61.8432 7.62526 60.7358 7.68939 60.027 7.68943L45.4463 7.72728C46.3799 8.64885 47.3135 9.57052 48.247 10.4923C48.3624 10.7195 48.4776 10.9468 48.5925 11.1741C48.8245 12.3291 47.4448 13.097 46.5204 12.4997C45.165 11.1616 43.8092 9.82329 42.4531 8.48484C41.982 8.01967 41.1441 7.48254 40.9185 6.81827C40.5556 5.75008 41.6175 5.14323 42.0697 4.69718C43.6665 3.12112 45.1544 1.2134 47.0959 0.000347842ZM1.31999 0.34142L27.465 0.378151C27.9721 0.378863 28.3382 0.311736 29.1875 1.07015C29.3741 1.23675 29.5934 1.45549 29.8108 1.6821C30.0746 1.9572 31.5469 3.5083 33.0521 4.9776C35.3542 7.22478 38.5765 10.3639 38.0317 9.79493C38.3126 10.0884 38.5434 10.3796 38.6547 10.6437C38.7257 10.8132 38.7598 11.1257 38.7746 11.4433C38.7978 11.9371 38.775 12.4432 38.775 12.4432L38.7921 12.7812C38.7921 12.7812 38.7534 18.1837 38.7697 21.6658L59.4131 21.7037C60.2418 21.9746 61.5342 23.6459 62.1758 24.2793C63.9404 26.0214 65.7055 27.7637 67.4708 29.5063C68.2704 30.2954 69.4496 31.088 69.9264 32.1576V65.6406C69.9264 66.9 70.1691 70.0997 69.7731 70.9434C69.4348 71.6638 68.442 71.6252 67.3558 71.6252C78.1877 71.6252 42.6562 71.5922 36.0821 71.6941C35.3945 71.7046 34.6847 71.7042 34.0335 71.6754C32.8021 71.6207 31.7806 71.4655 31.5176 71.0948C31.3289 70.8291 31.2492 70.2271 31.2234 69.5143C31.4192 74.9159 31.2107 50.3006 31.2107 50.3006H7.84291C6.78519 50.3006 4.60552 50.4356 2.83591 50.3486C1.53593 50.2849 0.598453 50.5004 0.20718 49.6567C-0.0314327 49.1421 -0.0181448 48.1972 0.024946 47.3517C0.0266545 47.3179 0.0300715 47.2509 0.0300715 47.2509L0.0293501 46.5511L0.0537239 2.15922V1.77317C0.0537239 1.86766 0.0113165 0.577547 1.31999 0.34142ZM2.81647 2.95493L2.77805 47.6871C2.77805 47.6871 21.7852 47.6616 31.2874 47.6493V29.1275C31.2874 27.48 31.2774 25.6838 31.271 24.5239C31.265 23.4568 31.2621 22.9283 31.2725 23.5496C31.2638 23.0329 31.2826 22.5212 31.4793 22.234C31.7481 21.8412 32.1685 21.6933 32.6617 21.6553C33.7268 21.5734 36.0966 21.5891 36.0966 21.5891L36.0206 12.4064C36.0206 12.4064 35.7037 12.4239 35.5516 12.4239C31.1557 12.4239 26.5879 12.4213 28.58 12.4263C27.5915 12.4239 26.8151 12.3481 26.539 11.5801C26.5357 11.5711 26.5326 11.5619 26.5294 11.5527C26.5287 11.415 26.5269 11.1379 26.5269 11.1379L26.5282 2.95475H2.81643L2.81647 2.95493ZM29.1767 4.84916L29.177 9.8106L34.2408 9.8094L29.1767 4.84916ZM6.69468 5.05864L10.6704 5.09263C10.6704 5.09263 10.7349 5.096 10.8495 5.09788C11.9147 5.1152 12.2936 5.63554 12.3324 6.17443C12.4083 7.23205 11.7017 7.66878 10.8875 7.75899C10.812 7.76999 10.7352 7.76999 10.6597 7.75899H7.47058L7.47294 11.2113C7.47294 11.2113 7.43611 11.3902 7.41394 11.4677C7.19533 12.2328 6.73572 12.6933 5.80933 12.3862C5.46384 12.2717 5.09417 11.9246 4.96517 11.5908C4.94189 11.5305 4.90465 11.1903 4.90465 11.1903L4.8515 7.38512C4.8515 7.38512 4.92337 6.05277 4.96513 5.90929C5.23203 4.99275 6.69464 5.05845 6.69464 5.05845L6.69468 5.05864ZM33.9733 24.2793V69.0116C45.0614 68.9989 56.1505 68.9863 67.2408 68.9738C67.2279 57.233 67.2151 45.4912 67.2024 33.7484H60.5258C59.3052 33.7484 58.2308 33.8396 57.8014 33.0667C57.5125 32.5463 57.648 31.4382 57.648 30.6804C57.6351 28.5469 57.6223 26.4132 57.6097 24.2793H33.9733ZM60.3341 26.173C60.1993 26.6652 60.2115 30.7868 60.3724 31.1348L65.322 31.0969V31.0591L65.207 30.9833C64.8079 30.3429 64.0338 29.7881 63.4803 29.2789C62.4188 28.3025 61.5209 27.0069 60.3341 26.173ZM8.38175 31.1091H8.42807L27.858 31.1466C27.858 31.1466 28.802 31.4252 28.8072 32.4584C28.8132 33.658 27.858 33.8452 27.858 33.8452H8.38175C8.38175 33.8452 7.37977 33.6477 7.35669 32.5334C7.33303 31.3929 8.38175 31.1091 8.38175 31.1091ZM6.00132 54.808C6.67213 54.8107 7.07954 54.9879 7.34431 55.3759C7.53121 55.6498 7.43277 57.9826 7.43277 57.9826C7.43277 57.9826 7.53623 61.2993 7.53615 62.0043C7.53615 62.6501 7.45923 63.433 7.72799 63.8225C8.21467 64.5275 10.0869 64.2771 11.2581 64.2771C14.8901 64.2644 18.5226 64.2517 22.1554 64.2393V64.2014C21.8228 63.8858 21.4903 63.5701 21.1577 63.2543C20.6686 62.5009 17.4053 60.3885 19.7764 59.3151C20.6642 58.9133 21.3508 59.6951 21.7333 60.0725L25.34 63.671C25.8004 64.1253 26.5795 64.6024 26.7213 65.3374C26.9022 66.2748 26.0918 66.7167 25.6853 67.1178L21.925 70.8298C21.5723 71.178 20.9268 72.1986 20.0832 71.9658C19.3132 71.7537 18.5996 70.7132 19.2007 69.8448C20.1854 68.8728 21.1703 67.9007 22.1552 66.9285V66.8906H11.8719C8.69915 66.8906 6.69032 67.09 5.42561 65.1482C4.49204 63.7149 4.88855 60.3945 4.88844 58.1412C4.88844 57.3852 4.9146 56.2184 4.96517 55.6412C5.01042 55.1236 5.5367 55.031 6.00132 54.808ZM63.2206 66.9075L59.2449 66.8734C59.2449 66.8734 59.1799 66.87 59.0657 66.8681C58.0004 66.8509 57.6215 66.3307 57.5827 65.7917C57.5068 64.734 58.2133 64.2973 59.0277 64.207C59.1032 64.1961 59.18 64.1961 59.2555 64.207H62.4446L62.4423 60.7547C62.4423 60.7547 62.4791 60.5759 62.5012 60.4983C62.7198 59.7333 63.1796 59.2727 64.106 59.5801C64.4514 59.6944 64.8209 60.0414 64.9499 60.3754C64.9735 60.4357 65.0107 60.7757 65.0107 60.7757L65.0638 64.5811C65.0638 64.5811 64.9917 65.9135 64.9499 66.0567C64.683 66.9731 63.2206 66.9075 63.2206 66.9075ZM8.38175 37.9681H8.42807L27.858 38.0055C27.858 38.0055 28.802 38.284 28.8072 39.3174C28.8132 40.5171 27.858 40.7041 27.858 40.7041H8.38175C8.38175 40.7041 7.37977 40.5066 7.35669 39.3923C7.33303 38.2518 8.38175 37.9681 8.38175 37.9681ZM8.38175 23.763H8.42807L27.858 23.8004C27.858 23.8004 28.802 24.079 28.8072 25.1123C28.8132 26.3119 27.858 26.499 27.858 26.499H8.38175C8.38175 26.499 7.37977 26.3015 7.35669 25.1872C7.33303 24.0467 8.38175 23.763 8.38175 23.763ZM8.38175 16.8291H8.42807L27.858 16.8666C27.858 16.8666 28.802 17.1451 28.8072 18.1784C28.8132 19.378 27.858 19.5652 27.858 19.5652H8.38175C8.38175 19.5652 7.37977 19.3676 7.35669 18.2533C7.33303 17.1128 8.38175 16.8291 8.38175 16.8291ZM10.7356 9.70779H10.7819L20.9863 9.74527C20.9863 9.74527 21.9303 10.0238 21.9354 11.0571C21.9414 12.2567 20.9863 12.4439 20.9863 12.4439H10.7356C10.7356 12.4439 9.73363 12.2463 9.71055 11.132C9.68689 9.99155 10.7356 9.70779 10.7356 9.70779ZM39.5134 52.2481H39.5598L58.9897 52.2856C58.9897 52.2856 59.9336 52.5641 59.9389 53.5974C59.9449 54.7972 58.9897 54.9842 58.9897 54.9842H39.5134C39.5134 54.9842 38.5115 54.7867 38.4884 53.6724C38.4648 52.5318 39.5134 52.2481 39.5134 52.2481ZM39.5134 59.107H39.5598L58.9897 59.1445C58.9897 59.1445 59.9336 59.423 59.9389 60.4563C59.9449 61.6561 58.9897 61.8431 58.9897 61.8431H39.5134C39.5134 61.8431 38.5115 61.6456 38.4884 60.5313C38.4648 59.3908 39.5134 59.107 39.5134 59.107ZM39.5134 44.902H39.5598L58.9897 44.9394C58.9897 44.9394 59.9336 45.2179 59.9389 46.2512C59.9449 47.451 58.9897 47.638 58.9897 47.638H39.5134C39.5134 47.638 38.5115 47.4405 38.4884 46.3262C38.4648 45.1857 39.5134 44.902 39.5134 44.902ZM39.5134 37.9681H39.5598L58.9897 38.0055C58.9897 38.0055 59.9336 38.284 59.9389 39.3174C59.9449 40.5171 58.9897 40.7041 58.9897 40.7041H39.5134C39.5134 40.7041 38.5115 40.5066 38.4884 39.3923C38.4648 38.2518 39.5134 37.9681 39.5134 37.9681ZM39.5514 30.8468H39.5977L49.8021 30.8843C49.8021 30.8843 50.7459 31.1628 50.7512 32.1961C50.7573 33.3957 49.8021 33.5828 49.8021 33.5828H39.5514C39.5514 33.5828 38.5495 33.3853 38.5263 32.271C38.5028 31.1305 39.5514 30.8468 39.5514 30.8468Z" fill="white"/>
</svg>
